<?xml version="1.0" standalone="no"?>
<!DOCTYPE svg PUBLIC "-//W3C//DTD SVG 20010904//EN"
 "http://www.w3.org/TR/2001/REC-SVG-20010904/DTD/svg10.dtd">
<svg version="1.0" xmlns="http://www.w3.org/2000/svg"
 width="260.000000pt" height="260.000000pt" viewBox="0 0 260.000000 260.000000"
 preserveAspectRatio="xMidYMid meet">
<metadata>
Created by potrace 1.14, written by Peter Selinger 2001-2017
</metadata>
<g transform="translate(0.000000,260.000000) scale(0.100000,-0.100000)"
fill="#000000" stroke="none">
<path d="M0 1300 l0 -1300 1300 0 1300 0 0 1300 0 1300 -1300 0 -1300 0 0
-1300z m1810 930 c0 -19 -7 -20 -165 -20 -158 0 -165 1 -165 20 0 19 7 20 165
20 158 0 165 -1 165 -20z m-388 -410 l3 -300 214 300 c176 246 219 300 238
300 l23 0 0 -676 c0 -437 3 -674 10 -672 5 2 107 97 226 212 171 166 219 208
231 200 9 -5 14 -14 12 -19 -2 -6 -62 -66 -134 -135 -71 -69 -129 -130 -129
-136 1 -6 68 -91 149 -189 112 -135 144 -179 134 -186 -8 -5 -17 -9 -20 -9 -4
0 -73 81 -155 179 l-148 180 -66 -61 c-116 -109 -110 -98 -110 -199 0 -82 -2
-89 -20 -89 -20 0 -20 8 -22 765 l-3 765 -214 -300 c-176 -246 -219 -300 -238
-300 l-23 0 0 335 c0 328 0 335 20 335 19 0 20 -8 22 -300z m-890 -660 c79
-24 146 -80 180 -148 20 -42 23 -61 23 -172 0 -106 -3 -132 -21 -170 -28 -60
-67 -97 -134 -129 -51 -24 -67 -26 -222 -29 l-168 -4 0 336 0 336 139 0 c111
0 152 -4 203 -20z m625 -161 c38 -12 78 -51 106 -104 17 -33 21 -58 22 -140 0
-85 -3 -107 -23 -147 -29 -59 -65 -86 -134 -100 -69 -14 -126 1 -179 49 l-39
35 0 -121 c0 -114 -1 -121 -20 -121 -20 0 -20 7 -20 330 0 323 0 330 20 330
17 0 20 -7 20 -43 l0 -44 40 38 c57 54 116 65 207 38z m308 -199 c49 -113 91
-208 95 -212 3 -5 50 89 104 207 54 118 101 215 105 215 35 -1 27 -27 -103
-309 -74 -162 -145 -304 -157 -317 -12 -13 -37 -26 -55 -30 -40 -7 -104 12
-104 32 0 21 22 27 54 14 43 -16 75 6 107 71 l28 56 -103 234 c-92 208 -102
235 -88 247 9 6 19 9 22 5 4 -5 46 -100 95 -213z"/>
<path d="M230 845 l0 -298 138 5 c186 6 253 35 305 133 18 33 22 57 22 145 0
93 -3 112 -26 161 -49 105 -122 139 -311 146 l-128 6 0 -298z"/>
<path d="M1010 951 c-124 -65 -128 -307 -8 -381 51 -31 137 -28 178 6 51 43
64 79 65 174 0 72 -4 92 -25 130 -47 84 -132 113 -210 71z"/>
</g>
</svg>
