<svg xmlns="http://www.w3.org/2000/svg" fill="none" viewBox="0 0 266 33"><path fill="#fff" fill-rule="evenodd" stroke="#898989" stroke-miterlimit="22.926" stroke-width=".547" d="M95.828 22.954a5.18 5.18 0 0 1-4.837 3.354h-3.594a5.296 5.296 0 0 1-1.477-.213 5.296 5.296 0 0 1-1.52.213h-3.333a5.1 5.1 0 0 1-1.854-.345 5.072 5.072 0 0 1-1.85.345h-3.588c-.651 0-1.275-.12-1.855-.345a5.071 5.071 0 0 1-1.849.345h-3.589a5.266 5.266 0 0 1-1.477-.213c-.481.142-.99.213-1.52.213h-3.338a5.068 5.068 0 0 1-1.893-.36c-.962.256-1.975.36-2.987.36h-5.159c-.81 0-1.58-.191-2.264-.525a11.236 11.236 0 0 1-3.923.684c-1.335 0-2.648-.22-3.884-.679-.695.345-1.461.52-2.292.52h-3.24c-.935 0-1.81-.252-2.57-.684h-.028a5.186 5.186 0 0 1-2.571.684h-3.239c-.246 0-.492-.016-.733-.055-.24.039-.487.055-.733.055h-3.354c-.197 0-.388-.01-.58-.033a9.336 9.336 0 0 1-1.892.192c-1.319 0-2.615-.235-3.819-.782-.268.103-.536.202-.815.284-1.264.383-2.582.547-3.9.547-1.998 0-3.978-.295-5.86-.985-1.351-.492-2.336-1.406-2.932-2.713-.597-1.308-.635-2.648-.12-3.988l.864-2.265-.651-1.828A5.171 5.171 0 0 1 4.58 8.178c1.832-.706 3.764-1.127 5.738-1.127 1.653 0 3.31.24 4.842.875a13.912 13.912 0 0 1 4.743-.842c1.384 0 2.752.186 4.021.64a5.07 5.07 0 0 1 2.172-.482h3.813c.794 0 1.543.165 2.21.476a5.202 5.202 0 0 1 2.21-.476h3.382c.82 0 1.592.192 2.28.531 1.254-.47 2.578-.69 3.929-.69 1.346 0 2.675.214 3.928.685a5.064 5.064 0 0 1 2.26-.526h4.901c1.073 0 2.14.115 3.162.394a5.07 5.07 0 0 1 1.975-.394h3.589c.52 0 1.018.077 1.488.22.481-.148.99-.22 1.526-.22h3.321c.175 0 .35.006.52.028.17-.022.345-.027.52-.027h8.917c.175 0 .35.005.52.027.17-.022.344-.027.52-.027h3.588c.514 0 1.012.076 1.483.218a5.212 5.212 0 0 1 1.532-.219h3.32c2.161 0 4.021 1.34 4.787 3.228l15.012-6.16c2.216-.908 4.431-1.827 6.647-2.746.066-.028.126-.05.192-.071 4.387-1.62 9.07.87 9.185 5.75h2.484c.372 0 .733.038 1.083.114.35-.076.717-.115 1.089-.115h3.588c.805 0 1.565.187 2.243.515 1.22-.46 2.506-.673 3.819-.673 1.318 0 2.61.219 3.835.684a5.065 5.065 0 0 1 2.259-.526h3.431c.164 0 .328.006.486.022.619-.12 1.259-.18 1.91-.18 1.652 0 3.238.41 4.672 1.225.005.006.011.006.011.006.06-.028.126-.06.186-.093 1.521-.777 3.178-1.138 4.88-1.138 1.499 0 2.97.284 4.343.892 1.669-.586 3.409-.925 5.181-.925 1.931 0 3.852.328 5.58 1.215.208.109.411.218.602.339a5.181 5.181 0 0 1 4.825-3.326h3.611c1.784 0 3.359.913 4.289 2.292a11.11 11.11 0 0 1 3.288-.487c.416 0 .826.022 1.237.066a5.186 5.186 0 0 1 4.699-3.02h3.605a5.179 5.179 0 0 1 4.705 3.036c.454-.055.914-.082 1.373-.082 1.62 0 3.201.334 4.661 1.04.115.054.23.109.339.169l.143-.077a9.476 9.476 0 0 1 4.53-1.132 9.67 9.67 0 0 1 1.958.197c.202-.028.41-.038.624-.038h3.43c.273 0 .542.021.799.06.262-.039.525-.06.798-.06h3.431c.246 0 .486.016.727.049a10.195 10.195 0 0 1 2.095-.208c.646 0 1.264.115 1.833.334.99-.22 2.002-.334 3.02-.334 1.401 0 2.785.191 4.07.656a5.18 5.18 0 0 1 2.216-.498h3.43c.197 0 .394.011.585.033a8.986 8.986 0 0 1 1.888-.191c.963 0 1.909.142 2.817.438a9.15 9.15 0 0 1 2.829-.438c2.369 0 4.568.831 6.231 2.533C264.311 11.389 265 13.73 265 16.16v4.978a5.183 5.183 0 0 1-5.17 5.17h-3.605c-.361 0-.711-.038-1.056-.11-.339.072-.689.11-1.05.11h-3.606c-.361 0-.711-.038-1.055-.11-.34.072-.69.11-1.051.11h-3.605c-.268 0-.531-.022-.782-.06-.258.038-.52.06-.783.06h-3.353c-.192 0-.389-.01-.58-.033a9.335 9.335 0 0 1-1.893.192c-1.34 0-2.664-.246-3.884-.815a5.083 5.083 0 0 1-2.511.656h-2.451c-.203.23-.422.449-.657.662-2.051 1.86-4.683 2.593-7.407 2.593-1.237 0-2.478-.131-3.682-.432-1.253-.306-2.456-.793-3.54-1.51a5.37 5.37 0 0 1-1.313-1.236c-.492.054-.995.082-1.504.082-1.406 0-2.79-.22-4.103-.706a5.11 5.11 0 0 1-2.309.547h-3.605a5.158 5.158 0 0 1-1.953-.383c-1.154.372-2.385.542-3.649.542-1.351 0-2.686-.203-3.955-.651-1.188.47-2.462.65-3.748.65-2.309 0-4.53-.64-6.275-2.199a8.218 8.218 0 0 1-.684-.694l-.104.104c-1.088 1.1-2.434 1.849-3.911 2.292-1.264.383-2.577.547-3.901.547-1.729 0-3.447-.224-5.099-.728-1.263.465-2.637.679-4.043.679-1.745 0-3.463-.334-5.038-1.1l-.312-.164-.06.033a9.284 9.284 0 0 1-2.074.875 5.182 5.182 0 0 1-4.814 3.294h-3.611c-2.062 0-3.851-1.226-4.677-2.982-.356.033-.717.044-1.078.044-1.406 0-2.79-.22-4.097-.7a5.176 5.176 0 0 1-2.304.541h-3.588a5.175 5.175 0 0 1-4.585-2.785 8.856 8.856 0 0 1-2.352-.913l-.608 3.753c-.306 2.905-2.259 5.482-5.213 6.16-2.522.585-5.351-.449-7.408-1.948-2.325-1.526-4.934-3.14-6.986-4.869a6.853 6.853 0 0 1-1.264-1.324 11.034 11.034 0 0 1-3.835-.35 45.94 45.94 0 0 1-3.391-1.078v0z" clip-rule="evenodd"/><path fill="#38A7DF" d="M97.381 15.405l15.373-6.308 6.664-2.757s2.396-.886 2.221 1.335c-.088.886-.624 4.174-1.155 7.637l-1.69 10.4s-.088 1.51-1.247 1.778c-1.155.268-2.933-.892-3.283-1.16-.268-.175-4.978-3.195-6.663-4.617-.449-.356-.98-1.16.087-2.134 2.396-2.221 5.241-4.885 6.932-6.576.798-.799 1.597-2.664-1.691-.355l-9.327 6.307s-1.067.624-3.026.088c-1.953-.53-4.261-1.422-4.261-1.422s-1.691-1.15 1.066-2.216z"/><path fill="#37A6DF" d="M13.558 16.608c.46.175.826.416 1.1.734.257.333.383.716.383 1.148 0 .608-.208 1.116-.64 1.549-.432.432-1.007.766-1.723.973-.717.225-1.532.334-2.408.334-1.499 0-2.855-.224-4.086-.667l.908-2.38c.913.334 1.931.492 3.08.492.383 0 .69-.044.913-.142.22-.093.334-.24.334-.448 0-.176-.049-.285-.142-.367-.115-.06-.29-.093-.53-.093H8.754v-2.013h1.658c.273 0 .465-.028.59-.11a.42.42 0 0 0 .175-.366c0-.175-.082-.301-.257-.383-.175-.082-.46-.126-.875-.126-.799 0-1.723.175-2.79.542l-.815-2.282c1.357-.53 2.648-.782 3.879-.782 1.307 0 2.374.208 3.222.634.842.433 1.258 1.073 1.258 1.888 0 .383-.11.733-.334 1.067-.224.333-.525.59-.908.798zM19.904 12.254c1.532 0 2.698.333 3.513 1.017.815.69 1.214 1.756 1.214 3.179v4.688h-3.354V19.99c-.415.876-1.241 1.308-2.472 1.308-.684 0-1.275-.11-1.756-.367-.493-.24-.86-.558-1.1-.974a2.483 2.483 0 0 1-.383-1.373c0-.858.334-1.515.99-1.958.657-.449 1.658-.673 2.998-.673h1.456c-.115-.684-.674-1.018-1.647-1.018-.4 0-.799.06-1.193.175-.4.126-.755.301-1.04.51l-1.148-2.38c.492-.301 1.1-.559 1.816-.734a8.69 8.69 0 0 1 2.106-.251zm-.01 6.876c.251 0 .475-.065.683-.207.208-.148.35-.35.449-.624v-.607h-.897c-.733 0-1.1.24-1.1.733 0 .208.082.366.24.498.143.142.35.207.624.207zM34.506 21.138l-.017-3.906-1.849 3.222h-1.515l-1.79-3.304v3.988h-3.238v-8.726h3.813l2.074 4.065 2.347-4.065h3.38l.033 8.726h-3.238zM43.921 21.297c-.974 0-1.838-.192-2.604-.591a4.374 4.374 0 0 1-1.816-1.608 4.276 4.276 0 0 1-.657-2.33c0-.876.224-1.659.657-2.348.432-.684 1.034-1.209 1.816-1.592.766-.383 1.63-.574 2.604-.574.974 0 1.85.191 2.631.574.766.383 1.374.908 1.806 1.592.427.69.634 1.472.634 2.347s-.207 1.641-.634 2.33a4.446 4.446 0 0 1-1.806 1.609c-.782.4-1.657.59-2.631.59zm0-2.807c.416 0 .75-.158 1.018-.465.273-.3.399-.716.399-1.258 0-.541-.126-.957-.4-1.258-.268-.307-.601-.449-1.017-.449-.416 0-.75.142-1.023.449-.268.3-.4.716-.4 1.258s.132.957.4 1.258a1.31 1.31 0 0 0 1.023.465zM57.532 16.56c.958.366 1.434 1.039 1.434 2.023 0 .8-.318 1.423-.941 1.871-.624.46-1.549.684-2.758.684h-5.159v-8.726h4.902c1.166 0 2.074.192 2.73.591.651.4.968.974.968 1.69 0 .4-.093.767-.3 1.084-.208.323-.493.574-.876.782zm-4.261-.701h1.422c.525 0 .777-.208.777-.624 0-.208-.06-.35-.175-.448-.126-.093-.334-.143-.602-.143H53.27v1.215zm1.674 3.047c.525 0 .782-.224.782-.656 0-.416-.257-.624-.782-.624H53.27v1.28h1.675zM60.147 12.412h3.59v3.94l3.014-3.94h3.32v8.726h-3.588v-3.955l-2.999 3.955h-3.337v-8.726zM80.028 15.219h-2.664v5.92h-3.589v-5.92h-2.664v-2.807h8.917v2.807zM81.067 12.412h3.59v3.94l3.014-3.94h3.32v8.726h-3.594v-3.955L84.4 21.138h-3.332v-8.726zM135.058 12.412v8.726h-3.588V18.19c-.515.301-1.182.444-2.014.444-1.258 0-2.199-.285-2.823-.86-.623-.557-.924-1.47-.924-2.696v-2.665h3.589v2.424c0 .432.082.733.257.908.158.175.416.257.766.257.426 0 .815-.082 1.149-.24v-3.349h3.588zM145.923 16.767c0 .05-.016.334-.049.848h-6.061c.125.334.333.575.64.75.301.175.667.268 1.116.268.383 0 .7-.05.974-.143.251-.098.541-.257.842-.492l1.882 1.898c-.843.941-2.117 1.4-3.808 1.4-1.056 0-1.98-.19-2.779-.59-.799-.383-1.422-.924-1.849-1.608a4.317 4.317 0 0 1-.656-2.33c0-.876.224-1.659.656-2.348.427-.684 1.018-1.209 1.767-1.592.755-.383 1.581-.574 2.522-.574.881 0 1.691.175 2.424.525.722.35 1.313.859 1.739 1.548.433.684.64 1.5.64 2.44zm-4.77-2.057c-.367 0-.684.093-.925.301-.24.208-.399.498-.481.864h2.812c-.082-.366-.241-.656-.481-.864-.241-.208-.559-.3-.925-.3zM153.041 12.254a4.26 4.26 0 0 1 2.123.541c.634.367 1.148.909 1.531 1.592.367.69.558 1.488.558 2.396 0 .909-.191 1.691-.558 2.375a4.063 4.063 0 0 1-1.531 1.58 4.274 4.274 0 0 1-2.123.559c-.974 0-1.707-.252-2.216-.75v3.688h-3.611V12.412h3.431v.717c.53-.59 1.329-.875 2.396-.875zm-.865 6.236c.416 0 .75-.142 1.023-.448.274-.301.4-.717.4-1.259 0-.541-.126-.973-.4-1.274a1.294 1.294 0 0 0-1.023-.449c-.41 0-.749.142-1.017.449-.274.3-.399.733-.399 1.274 0 .542.125.958.399 1.259.268.306.607.448 1.017.448zM167.593 16.767c0 .05-.016.334-.049.848h-6.062c.126.334.334.575.635.75.306.175.673.268 1.116.268.388 0 .706-.05.974-.143.257-.098.547-.257.848-.492l1.882 1.898c-.843.941-2.123 1.4-3.814 1.4-1.05 0-1.98-.19-2.773-.59-.799-.383-1.423-.924-1.855-1.608a4.357 4.357 0 0 1-.651-2.33c0-.876.224-1.659.651-2.348.432-.684 1.023-1.209 1.773-1.592.749-.383 1.581-.574 2.522-.574.875 0 1.69.175 2.423.525.717.35 1.308.859 1.74 1.548.432.684.64 1.5.64 2.44zm-4.77-2.057c-.367 0-.69.093-.925.301-.241.208-.399.498-.481.864h2.806c-.077-.366-.235-.656-.476-.864-.241-.208-.558-.3-.924-.3zM175.553 16.608c.465.175.832.416 1.1.734.257.333.383.716.383 1.148 0 .608-.208 1.116-.635 1.549-.432.432-1.007.766-1.723.973-.722.225-1.532.334-2.413.334-1.499 0-2.856-.224-4.081-.667l.908-2.38c.908.334 1.931.492 3.08.492.383 0 .684-.044.908-.142.225-.093.334-.24.334-.448 0-.176-.044-.285-.142-.367-.11-.06-.285-.093-.525-.093h-1.997v-2.013h1.663c.268 0 .459-.028.585-.11.115-.082.175-.191.175-.366s-.076-.301-.251-.383c-.175-.082-.465-.126-.881-.126-.793 0-1.723.175-2.79.542l-.815-2.282c1.356-.53 2.647-.782 3.878-.782 1.308 0 2.38.208 3.223.634.848.433 1.263 1.073 1.263 1.888 0 .383-.114.733-.339 1.067-.219.333-.525.59-.908.798zM189.356 20.837c-.542.301-1.275.46-2.216.46-1.231 0-2.172-.301-2.828-.892-.651-.59-.99-1.466-.99-2.648v-2.232h-1.193v-2.637h1.193v-2.44h3.61v2.44h1.784v2.637h-1.784v2.2c0 .273.06.476.208.623a.733.733 0 0 0 .542.225c.301 0 .574-.083.809-.241l.865 2.505zM199.313 16.767c0 .05-.017.334-.05.848h-6.061c.126.334.333.575.64.75.301.175.667.268 1.116.268.383 0 .7-.05.974-.143.251-.098.541-.257.842-.492l1.882 1.898c-.842.941-2.123 1.4-3.813 1.4-1.05 0-1.975-.19-2.774-.59-.798-.383-1.422-.924-1.854-1.608a4.357 4.357 0 0 1-.651-2.33c0-.876.224-1.659.651-2.348.432-.684 1.023-1.209 1.772-1.592.75-.383 1.581-.574 2.522-.574.876 0 1.691.175 2.424.525.722.35 1.307.859 1.74 1.548.432.684.64 1.5.64 2.44zm-4.771-2.057c-.366 0-.689.093-.924.301-.241.208-.4.498-.482.864h2.807c-.077-.366-.236-.656-.476-.864-.241-.208-.558-.3-.925-.3zM200.445 9.3h3.605v11.838h-3.605V9.3zM214.932 16.767c0 .05-.017.334-.05.848h-6.061c.126.334.334.575.64.75.301.175.667.268 1.116.268.383 0 .7-.05.974-.143.257-.098.541-.257.842-.492l1.888 1.898c-.848.941-2.123 1.4-3.819 1.4-1.05 0-1.975-.19-2.774-.59-.798-.383-1.422-.924-1.849-1.608a4.317 4.317 0 0 1-.656-2.33c0-.876.224-1.659.656-2.348.427-.684 1.018-1.209 1.767-1.592.755-.383 1.581-.574 2.522-.574.881 0 1.691.175 2.429.525.717.35 1.308.859 1.74 1.548.427.684.635 1.5.635 2.44zm-4.771-2.057c-.366 0-.684.093-.924.301-.241.208-.4.498-.482.864h2.812c-.082-.366-.241-.656-.481-.864-.236-.208-.558-.3-.925-.3zM225.813 12.412v6.986c0 1.664-.46 2.905-1.373 3.753-.925.827-2.232 1.242-3.939 1.242-.876 0-1.691-.093-2.44-.268-.75-.197-1.406-.465-1.931-.815l1.214-2.456c.334.251.766.46 1.291.618a4.98 4.98 0 0 0 1.499.24c.717 0 1.242-.158 1.581-.459.334-.306.493-.766.493-1.357v-.164c-.542.624-1.341.93-2.407.93-.75 0-1.439-.175-2.074-.53a3.708 3.708 0 0 1-1.548-1.483c-.383-.64-.575-1.373-.575-2.2 0-.83.192-1.564.575-2.204a3.92 3.92 0 0 1 1.548-1.482 4.39 4.39 0 0 1 2.074-.51c1.192 0 2.057.384 2.582 1.15v-.99h3.43zm-5.055 5.438c.427 0 .782-.126 1.067-.4.273-.25.416-.59.416-1 0-.416-.143-.75-.416-1.007-.285-.257-.64-.383-1.067-.383-.432 0-.799.126-1.072.383-.285.257-.427.591-.427 1.007 0 .41.142.75.427 1 .29.274.64.4 1.072.4zM230.841 13.353c.634-.733 1.581-1.1 2.823-1.1v3.19a4.745 4.745 0 0 0-.799-.066c-1.226 0-1.849.624-1.849 1.882v3.88h-3.606v-8.727h3.431v.941zM238.516 12.254c1.532 0 2.697.333 3.507 1.017.815.69 1.214 1.756 1.214 3.179v4.688h-3.353V19.99c-.411.876-1.242 1.308-2.473 1.308-.684 0-1.275-.11-1.751-.367-.497-.24-.864-.558-1.105-.974a2.534 2.534 0 0 1-.383-1.373c0-.858.339-1.515.99-1.958.657-.449 1.658-.673 2.998-.673h1.456c-.115-.684-.673-1.018-1.647-1.018-.394 0-.793.06-1.193.175a3.687 3.687 0 0 0-1.039.51l-1.149-2.38c.498-.301 1.1-.559 1.822-.734.7-.175 1.4-.251 2.106-.251zm-.016 6.876c.251 0 .476-.065.683-.207.208-.148.351-.35.449-.624v-.607h-.897c-.733 0-1.1.24-1.1.733a.61.61 0 0 0 .241.498c.142.142.35.207.624.207zM256.351 12.254c1.056 0 1.898.317 2.538.973.624.652.941 1.625.941 2.933v4.978h-3.605v-4.355c0-1.006-.317-1.499-.974-1.499a.998.998 0 0 0-.815.383c-.208.252-.317.652-.317 1.21v4.261h-3.606v-4.355c0-1.006-.322-1.499-.973-1.499a.996.996 0 0 0-.815.383c-.208.252-.318.652-.318 1.21v4.261h-3.605v-8.726h3.43v.815c.651-.656 1.466-.973 2.473-.973.591 0 1.116.11 1.581.317.46.224.843.558 1.149 1.007.35-.432.777-.75 1.275-.99a3.945 3.945 0 0 1 1.641-.334z"/></svg>