<svg xmlns="http://www.w3.org/2000/svg" fill="none" viewBox="0 0 231 42"><path fill="#fff" fill-rule="evenodd" stroke="#898989" stroke-miterlimit="22.926" stroke-width=".9" d="M85.827 11.106c.718-1.972 1.797-3.803 3.385-5.391.068-.068.13-.13.204-.198 3.842-3.52 10.103-4.752 15.2-4.48 4.583.05 10.104 1.124 13.522 4.248 1.656 1.453 2.826 3.25 3.622 5.227h1.034c.385 0 .758.034 1.119.096.368-.062.74-.096 1.125-.096h3.707c.83 0 1.633.159 2.367.435a12.74 12.74 0 0 1 3.894-.598c1.339 0 2.65.203 3.91.61a6.573 6.573 0 0 1 2.385-.447h3.543c.146 0 .288.006.429.017.667-.118 1.351-.18 2.046-.18 1.695 0 3.345.373 4.859 1.113 1.633-.752 3.402-1.114 5.21-1.114 1.56 0 3.091.272 4.532.837 1.718-.554 3.492-.865 5.306-.865 2.13 0 4.249.362 6.171 1.3 1.068-.723 2.333-1.108 3.718-1.108h3.825c.594 0 1.17.074 1.718.215a8.34 8.34 0 0 1 2.012-2.56c1.678-1.458 3.78-2.17 5.99-2.17 1.729 0 3.396.424 4.848 1.306h2.39a6.679 6.679 0 0 1 5.95 3.661c.424.147.837.317 1.238.52 1.65-.768 3.43-1.136 5.255-1.136 1.305 0 2.588.193 3.814.583a6.582 6.582 0 0 1 2.317-.419h3.543c.237 0 .469.017.701.04a11.956 11.956 0 0 1 2.215-.204c3.678 0 6.673 3.001 6.673 6.674v3.3c0 2.006-.791 3.74-2.316 5.052a7.714 7.714 0 0 1-.419.339v.491c0 3.68-3 6.674-6.673 6.674h-3.724a6.535 6.535 0 0 1-2.062-.328 13.776 13.776 0 0 1-3.724.492c-1.916 0-3.803-.356-5.544-1.159a11.046 11.046 0 0 1-4.955 1.159c-.695 0-1.379-.057-2.046-.175-.141.005-.282.011-.424.011h-3.543c-.282 0-.553-.017-.825-.05-.271.033-.548.05-.825.05h-3.723a6.681 6.681 0 0 1-2.08-.333 6.748 6.748 0 0 1-2.125.333h-3.853c-2.114 0-3.984-.921-5.222-2.492-1.147.96-2.486 1.65-3.927 2.085-1.435.43-2.921.622-4.419.622-1.769 0-3.531-.215-5.232-.69-1.334.435-2.752.639-4.21.639-1.899 0-3.769-.35-5.498-1.136-.413.203-.837.379-1.266.526-1.108 2.158-3.357 3.644-5.939 3.644h-3.729a6.675 6.675 0 0 1-5.589-3.034h-.356c-1.424 0-2.831-.198-4.17-.627-.757.3-1.582.463-2.441.463h-3.707a6.63 6.63 0 0 1-4.589-1.837c-1.932 2.888-4.882 4.86-8.73 5.883-1.921.621-4.538.91-6.984.955-.401.446-.786.87-1.277 1.283-2.063 1.729-4.78 2.35-7.374 1.548-2.91-.904-4.792-3.368-5.267-6.154a13.074 13.074 0 0 1-2.407-2.21c-1.21.368-2.486.532-3.78.532h-5.244a6.672 6.672 0 0 1-1.91-.277 6.682 6.682 0 0 1-1.916.277h-3.707a6.513 6.513 0 0 1-1.797-.249c-.57.164-1.17.249-1.797.249h-3.458c-.18 0-.356-.006-.531-.023-.656.125-1.334.187-2.023.187-1.368 0-2.712-.22-3.978-.706l-.424.135c-1.435.43-2.921.622-4.419.622-1.254 0-2.503-.108-3.73-.34-.412.08-.841.125-1.276.125h-3.464c-.175 0-.356-.006-.531-.023a11.568 11.568 0 0 1-4.447-.062 7.062 7.062 0 0 1-1.102.085H34.49c-.435 0-.86-.04-1.272-.113a6.848 6.848 0 0 1-1.232.113h-3.723c-.255 0-.51-.017-.758-.045a6.737 6.737 0 0 1-.757.045h-3.464a5.47 5.47 0 0 1-.53-.023c-.656.125-1.334.187-2.024.187-1.367 0-2.712-.22-3.978-.706l-.424.135c-1.435.43-2.921.622-4.413.622-2.22 0-4.419-.334-6.51-1.097-1.746-.638-3.017-1.813-3.786-3.503-.768-1.69-.825-3.419-.158-5.153l.718-1.877-.509-1.424a6.674 6.674 0 0 1 3.882-8.464c2.051-.791 4.204-1.255 6.408-1.255 1.718 0 3.425.232 5.024.814.361-.119.723-.22 1.09-.316a15.904 15.904 0 0 1 3.792-.47c1.407 0 2.791.176 4.097.577a6.611 6.611 0 0 1 2.3-.413h3.723c.47 0 .927.051 1.368.147a6.906 6.906 0 0 1 1.418-.147h3.922c.548 0 1.079.063 1.588.181a15.805 15.805 0 0 1 3.254-.345c1.645 0 3.255.243 4.758.797a17.133 17.133 0 0 1 5.182-.825c1.718 0 3.424.232 5.024.814.361-.119.723-.22 1.09-.316a15.904 15.904 0 0 1 3.792-.47c1.277 0 2.531.147 3.73.47a6.624 6.624 0 0 1 1.988-.306h9.211c.18 0 .362.012.537.023.18-.011.356-.023.537-.023h3.706c.978 0 1.905.215 2.735.594z" clip-rule="evenodd"/><path fill="#714B8F" d="M15.306 21.526c.48.18.86.43 1.142.757.26.345.395.74.395 1.187 0 .627-.214 1.153-.66 1.599-.447.44-1.04.791-1.78 1.006a8.558 8.558 0 0 1-2.487.345c-1.554 0-2.95-.232-4.221-.696l.938-2.452c.938.345 1.995.509 3.181.509.396 0 .712-.046.938-.147.232-.096.35-.249.35-.464 0-.18-.05-.294-.152-.378-.113-.062-.294-.096-.542-.096h-2.063v-2.08h1.718c.277 0 .475-.034.61-.113a.435.435 0 0 0 .181-.378.404.404 0 0 0-.266-.396c-.18-.085-.474-.136-.904-.136-.825 0-1.78.181-2.887.566l-.837-2.357c1.396-.548 2.735-.808 4.001-.808 1.35 0 2.458.215 3.329.656.875.446 1.305 1.107 1.305 1.944 0 .395-.119.762-.345 1.107-.232.345-.548.61-.944.825zM21.867 17.023c1.582 0 2.786.35 3.628 1.056.842.712 1.254 1.814 1.254 3.283v4.843h-3.464v-1.187c-.43.904-1.282 1.35-2.554 1.35-.706 0-1.317-.112-1.814-.378-.508-.248-.887-.576-1.136-1.006a2.565 2.565 0 0 1-.395-1.418c0-.887.345-1.565 1.023-2.023.672-.463 1.712-.695 3.096-.695h1.498c-.113-.706-.69-1.057-1.695-1.057a4.47 4.47 0 0 0-1.238.187c-.413.13-.774.31-1.068.525l-1.187-2.458a6.6 6.6 0 0 1 1.876-.757 8.955 8.955 0 0 1 2.176-.265zm-.017 7.108c.265 0 .497-.068.712-.215.215-.152.362-.367.458-.644v-.627h-.921c-.758 0-1.136.248-1.136.757 0 .215.079.379.248.514.147.147.362.215.639.215zM32.694 23.205h-.707v3h-3.723v-9.013h3.723v3.165h.808l1.978-3.165h3.922l-2.9 4.317 3.08 4.696h-4.384l-1.797-3zM128.745 17.192v9.013h-3.707v-3.051c-.531.316-1.221.463-2.08.463-1.299 0-2.271-.294-2.915-.887-.645-.582-.955-1.52-.955-2.786v-2.752h3.706v2.504c0 .446.085.757.266.938.164.18.429.265.791.265.447 0 .842-.085 1.187-.248v-3.459h3.707zM139.967 21.69c0 .05-.017.345-.051.87h-6.261c.136.35.345.594.661.774.311.187.69.283 1.153.283a3.1 3.1 0 0 0 1.006-.147 3.3 3.3 0 0 0 .87-.514l1.95 1.96c-.876.978-2.193 1.453-3.939 1.453-1.091 0-2.046-.198-2.871-.61-.825-.396-1.469-.956-1.91-1.662a4.461 4.461 0 0 1-.678-2.407c0-.91.232-1.712.678-2.424a4.533 4.533 0 0 1 1.826-1.65c.779-.396 1.633-.593 2.605-.593.909 0 1.751.186 2.509.548.74.361 1.35.887 1.796 1.599.441.706.656 1.548.656 2.52zm-4.927-2.125c-.379 0-.707.096-.955.311-.249.215-.413.509-.498.893h2.905c-.085-.384-.249-.678-.497-.893-.243-.215-.577-.31-.955-.31zM147.319 17.023a4.4 4.4 0 0 1 2.192.564c.656.38 1.187.939 1.582 1.645.379.712.577 1.537.577 2.475 0 .938-.198 1.746-.577 2.452a4.186 4.186 0 0 1-1.582 1.633 4.41 4.41 0 0 1-2.192.577c-1.006 0-1.763-.266-2.289-.774v3.808h-3.729V17.192h3.543v.74c.548-.61 1.373-.91 2.475-.91zm-.893 6.447c.429 0 .774-.147 1.056-.463.283-.311.413-.74.413-1.3s-.13-1.006-.413-1.322a1.35 1.35 0 0 0-1.056-.458c-.424 0-.774.147-1.051.458-.283.316-.413.762-.413 1.322s.13.989.413 1.3c.277.316.627.463 1.051.463zM162.35 21.69c0 .05-.017.345-.051.87h-6.261c.13.35.344.594.655.774.317.187.695.283 1.153.283.395 0 .729-.051 1.006-.147.265-.102.565-.266.876-.514l1.943 1.96c-.87.978-2.192 1.453-3.938 1.453-1.085 0-2.046-.198-2.865-.61-.825-.396-1.469-.956-1.916-1.662a4.509 4.509 0 0 1-.672-2.407c0-.91.232-1.712.672-2.424a4.586 4.586 0 0 1 1.831-1.65c.774-.396 1.633-.593 2.605-.593.904 0 1.746.186 2.503.548a4.298 4.298 0 0 1 1.797 1.599c.447.706.662 1.548.662 2.52zm-4.928-2.125c-.378 0-.712.096-.955.311-.249.215-.412.509-.497.893h2.899c-.079-.384-.243-.678-.492-.893-.249-.215-.576-.31-.955-.31zM170.571 21.526c.481.18.859.43 1.136.757.266.345.396.74.396 1.187 0 .627-.215 1.153-.656 1.599-.446.44-1.04.791-1.78 1.006a8.597 8.597 0 0 1-2.492.345c-1.548 0-2.949-.232-4.215-.696l.938-2.452c.938.345 1.994.509 3.181.509.396 0 .707-.046.938-.147.232-.096.345-.249.345-.464 0-.18-.051-.294-.147-.378-.113-.062-.3-.096-.543-.096h-2.062v-2.08h1.712c.283 0 .48-.034.61-.113.119-.084.181-.198.181-.378a.4.4 0 0 0-.26-.396c-.181-.085-.48-.136-.909-.136-.82 0-1.78.181-2.882.566l-.842-2.357c1.401-.548 2.735-.808 4.006-.808 1.351 0 2.452.215 3.328.656.876.446 1.306 1.107 1.306 1.944 0 .395-.119.762-.351 1.107-.231.345-.542.61-.938.825zM43.537 17.023c1.588 0 2.786.35 3.628 1.056.842.712 1.255 1.814 1.255 3.283v4.843h-3.464v-1.187c-.424.904-1.283 1.35-2.554 1.35-.707 0-1.317-.112-1.814-.378-.509-.248-.887-.576-1.136-1.006a2.612 2.612 0 0 1-.396-1.418c0-.887.345-1.565 1.023-2.023.678-.463 1.712-.695 3.097-.695h1.503c-.119-.706-.695-1.057-1.701-1.057-.407 0-.82.068-1.232.187-.412.13-.774.31-1.074.525l-1.186-2.458a6.57 6.57 0 0 1 1.882-.757 8.908 8.908 0 0 1 2.17-.265zm-.01 7.108c.259 0 .49-.068.705-.215.215-.152.362-.367.464-.644v-.627h-.927c-.757 0-1.136.248-1.136.757 0 .215.085.379.249.514.147.147.362.215.644.215zM56.822 21.526c.48.18.86.43 1.142.757.26.345.39.74.39 1.187 0 .627-.21 1.153-.656 1.599-.446.44-1.04.791-1.78 1.006-.74.226-1.582.345-2.492.345-1.548 0-2.95-.232-4.215-.696l.938-2.452c.938.345 1.995.509 3.181.509.396 0 .706-.046.938-.147.232-.096.345-.249.345-.464 0-.18-.045-.294-.147-.378-.113-.062-.294-.096-.543-.096h-2.062v-2.08h1.718c.277 0 .474-.034.61-.113a.434.434 0 0 0 .18-.378.404.404 0 0 0-.265-.396c-.18-.085-.48-.136-.904-.136-.825 0-1.78.181-2.887.566l-.842-2.357c1.401-.548 2.74-.808 4.006-.808 1.35 0 2.458.215 3.328.656.876.446 1.306 1.107 1.306 1.944 0 .395-.12.762-.35 1.107-.227.345-.543.61-.939.825zM63.383 17.023c1.582 0 2.786.35 3.627 1.056.843.712 1.25 1.814 1.25 3.283v4.843H64.8v-1.187c-.43.904-1.288 1.35-2.554 1.35-.712 0-1.317-.112-1.814-.378-.508-.248-.887-.576-1.136-1.006a2.565 2.565 0 0 1-.395-1.418c0-.887.344-1.565 1.023-2.023.672-.463 1.712-.695 3.096-.695h1.498c-.114-.706-.69-1.057-1.696-1.057a4.47 4.47 0 0 0-1.237.187c-.413.13-.774.31-1.068.525l-1.187-2.458a6.599 6.599 0 0 1 1.876-.757 8.954 8.954 0 0 1 2.176-.265zm-.017 7.108c.265 0 .497-.068.712-.215.215-.152.361-.367.457-.644v-.627h-.92c-.758 0-1.136.248-1.136.757 0 .215.079.379.243.514.152.147.367.215.644.215zM78.312 20.091H75.56v6.114h-3.707v-6.114h-2.752v-2.899h9.211v2.9zM85.087 19.91c1.204 0 2.142.266 2.786.791.644.526.972 1.266.972 2.244 0 1-.379 1.808-1.119 2.384-.757.582-1.797.876-3.097.876h-5.243v-9.013h3.707v2.718h1.994zm-.836 3.792c.542 0 .808-.283.808-.825 0-.525-.266-.791-.808-.791h-1.159v1.616h1.159zM188.224 17.192l-3.628 9.013h-3.853l-3.628-9.013h3.825l1.809 4.826 1.949-4.826h3.526zM188.801 17.192h3.723v9.013h-3.723v-9.012zm1.859-.728c-.673 0-1.204-.181-1.611-.543a1.703 1.703 0 0 1-.627-1.35c0-.543.215-1.006.627-1.368.407-.345.938-.531 1.611-.531.678 0 1.22.17 1.633.514.412.345.61.774.61 1.317 0 .576-.198 1.04-.61 1.401-.413.379-.955.56-1.633.56zM200.187 17.023a4.4 4.4 0 0 1 2.192.565c.661.379 1.187.921 1.582 1.628.379.712.577 1.537.577 2.475 0 .938-.198 1.763-.577 2.47-.395.711-.921 1.254-1.582 1.632a4.41 4.41 0 0 1-2.192.576c-1.102 0-1.927-.293-2.47-.904v.74h-3.543V13.979h3.724v3.825c.526-.514 1.283-.78 2.289-.78zm-.887 6.448c.423 0 .774-.164 1.051-.48.282-.311.412-.74.412-1.3s-.13-.99-.412-1.306c-.277-.31-.628-.457-1.051-.457-.43 0-.775.147-1.057.457-.283.317-.413.746-.413 1.306s.13.989.413 1.3c.282.316.627.48 1.057.48zM215.302 21.69c0 .05-.017.345-.05.87h-6.261c.13.35.344.594.655.774.316.187.695.283 1.153.283.395 0 .729-.051 1.006-.147a3.4 3.4 0 0 0 .875-.514l1.944 1.96c-.876.978-2.192 1.453-3.938 1.453-1.091 0-2.046-.198-2.865-.61-.825-.396-1.469-.956-1.916-1.662a4.457 4.457 0 0 1-.672-2.407c0-.91.226-1.712.672-2.424a4.586 4.586 0 0 1 1.831-1.65c.774-.396 1.633-.593 2.605-.593.904 0 1.746.186 2.503.548a4.298 4.298 0 0 1 1.797 1.599c.447.706.661 1.548.661 2.52zm-4.927-2.125c-.384 0-.712.096-.961.311-.243.215-.406.509-.491.893h2.899c-.08-.384-.249-.678-.492-.893-.249-.215-.576-.31-.955-.31zM220.015 18.164c.656-.763 1.633-1.142 2.916-1.142v3.3c-.3-.05-.577-.067-.825-.067-1.266 0-1.91.644-1.91 1.944v4.006h-3.724v-9.013h3.543v.972zM113.719 10.293c-.661-.61-3.339-2.554-9.312-2.583 0 0-7.046-.423-10.477 2.73-1.91 1.904-2.576 4.707-2.65 8.17-.073 3.47-.163 9.963 6.097 11.726h.006l-.005 2.69s-.04 1.09.678 1.31c.864.266 1.373-.559 2.203-1.452.452-.491 1.08-1.209 1.554-1.757 4.284.362 7.572-.463 7.951-.582.864-.283 5.758-.91 6.555-7.403.819-6.707-.401-10.94-2.6-12.85zm.724 12.358c-.673 5.425-4.64 5.764-5.369 6.001-.31.096-3.203.82-6.837.582 0 0-2.712 3.272-3.554 4.12-.277.276-.582.248-.577-.3 0-.356.023-4.464.023-4.464-.006 0-.006 0 0 0-5.306-1.47-4.995-7.001-4.939-9.895.057-2.893.605-5.266 2.221-6.86 2.904-2.633 8.883-2.243 8.883-2.243 5.052.023 7.47 1.543 8.035 2.057 1.859 1.594 2.809 5.408 2.114 11.002zm-7.245-4.21c.023.447-.649.475-.672.028-.056-1.147-.593-1.706-1.701-1.768-.446-.023-.407-.695.04-.673 1.452.08 2.26.916 2.333 2.413zm1.057.588c.057-2.21-1.328-3.944-3.95-4.136-.44-.029-.395-.701.045-.673 3.024.22 4.64 2.3 4.578 4.826-.006.446-.684.424-.673-.017zm2.453.695c.005.452-.673.457-.673.006-.034-4.244-2.865-6.561-6.3-6.59-.441-.005-.441-.672 0-.672 3.842.028 6.933 2.684 6.973 7.256zm-.588 5.114v.011c-.565.995-1.616 2.085-2.701 1.74l-.011-.016c-1.102-.311-3.69-1.645-5.329-2.945a13.874 13.874 0 0 1-2.21-2.215 17 17 0 0 1-1.604-2.424c-1.114-2.011-1.356-2.904-1.356-2.904-.35-1.085.74-2.142 1.734-2.701h.012c.48-.255.938-.17 1.243.203 0 0 .65.769.926 1.153.26.35.611.921.792 1.237.316.571.118 1.148-.193 1.39l-.627.498c-.316.254-.277.729-.277.729s.927 3.509 4.397 4.396c0 0 .474.04.729-.277l.502-.627c.238-.311.82-.509 1.385-.192.768.435 1.74 1.107 2.39 1.718.362.293.447.751.198 1.226z"/></svg>