<svg xmlns="http://www.w3.org/2000/svg" fill="none" viewBox="0 0 231 39"><path fill="#fff" fill-rule="evenodd" stroke="#898989" stroke-miterlimit="22.926" stroke-width=".5" d="M123.839 26.857c-1.632 3.47-4.596 5.734-8.77 6.861-1.932.627-4.646.883-7.072.894-2.098 2.253-4.186 3.869-7.533 2.83-2.553-.793-4.108-3.075-4.335-5.556a11.427 11.427 0 0 1-2.642-2.331 5.135 5.135 0 0 1-1.177.139h-3.647a5.117 5.117 0 0 1-1.493-.222 5.44 5.44 0 0 1-1.549.222h-3.38a5.27 5.27 0 0 1-1.882-.35 5.263 5.263 0 0 1-1.876.35H74.84c-.66 0-1.293-.128-1.882-.35a5.263 5.263 0 0 1-1.876.35h-3.641a5.155 5.155 0 0 1-1.499-.222 5.43 5.43 0 0 1-1.543.222h-3.386a5.253 5.253 0 0 1-1.92-.367c-.978.256-2.005.367-3.037.367h-5.23a5.165 5.165 0 0 1-2.297-.539 11.28 11.28 0 0 1-3.98.7c-1.36 0-2.687-.222-3.941-.689a5.168 5.168 0 0 1-2.326.528h-3.286c-.95 0-1.838-.256-2.61-.7h-.027c-.772.444-1.66.7-2.609.7h-3.286c-.255 0-.5-.023-.744-.056a5.523 5.523 0 0 1-.744.056h-3.402c-.2 0-.395-.011-.589-.034a9.474 9.474 0 0 1-1.92.195c-1.338 0-2.654-.245-3.875-.794-.272.105-.544.2-.827.283-1.282.389-2.62.555-3.958.555-2.026 0-4.035-.3-5.945-.994-1.371-.5-2.37-1.426-2.975-2.753-.605-1.326-.644-2.687-.122-4.052l.877-2.293-.66-1.854a5.247 5.247 0 0 1 3.052-6.655c1.86-.722 3.82-1.15 5.823-1.15 1.676 0 3.358.25 4.913.889.455-.172.927-.31 1.404-.433a14.119 14.119 0 0 1 3.408-.422c1.405 0 2.792.194 4.08.65a5.228 5.228 0 0 1 2.204-.489h3.869c.805 0 1.565.172 2.243.483a5.278 5.278 0 0 1 2.242-.483h3.43c.828 0 1.616.194 2.315.539 1.271-.478 2.615-.7 3.986-.7 1.365 0 2.714.222 3.985.694a5.214 5.214 0 0 1 2.293-.533H55.8c1.088 0 2.17.117 3.209.4a5.246 5.246 0 0 1 2.004-.4h3.641a5.23 5.23 0 0 1 1.51.222 5.44 5.44 0 0 1 1.549-.222h3.37c.177 0 .354.011.526.028.173-.017.35-.028.528-.028h9.048c.177 0 .355.011.527.028.172-.017.35-.028.528-.028h3.64c.523 0 1.028.078 1.505.222a5.48 5.48 0 0 1 1.555-.222h2.198c.638-1.87 1.626-3.602 3.12-5.096.055-.055.1-.1.16-.155 3.503-3.214 9.359-4.308 14-4.058 4.163.04 9.336.994 12.456 3.847 1.687 1.477 2.809 3.375 3.514 5.462h1.931c.378 0 .75.044 1.105.117a5.506 5.506 0 0 1 1.099-.117h3.641a5.21 5.21 0 0 1 2.276.522 11.065 11.065 0 0 1 3.875-.683c1.338 0 2.648.228 3.891.694a5.22 5.22 0 0 1 2.298-.533h3.481c.161 0 .327.011.488.028a9.713 9.713 0 0 1 1.937-.189 9.476 9.476 0 0 1 4.757 1.255l.184-.1c1.543-.783 3.225-1.155 4.951-1.155 1.527 0 3.014.294 4.407.905 1.694-.588 3.459-.938 5.257-.938 1.96 0 3.908.339 5.662 1.238.183.094.367.194.539.3.943-.872 2.159-1.344 3.513-1.344h3.758c.65 0 1.271.111 1.843.322.239-.083.483-.155.733-.205a6.962 6.962 0 0 1 1.943-2.742c1.41-1.222 3.175-1.81 5.029-1.81 1.576 0 3.092.41 4.38 1.282h2.731a5.242 5.242 0 0 1 4.89 3.359c.727.205 1.432.5 2.104.882.016.011.033.017.05.028.072-.039.15-.078.227-.117 1.543-.788 3.225-1.16 4.952-1.16 1.304 0 2.581.217 3.797.66a5.25 5.25 0 0 1 2.225-.499h3.481c.25 0 .494.022.738.056a10.347 10.347 0 0 1 2.126-.217 5.26 5.26 0 0 1 5.246 5.246v3.236c0 1.582-.622 2.942-1.821 3.974a5.582 5.582 0 0 1-.866.617v1.193a5.26 5.26 0 0 1-5.246 5.246h-3.658a5.262 5.262 0 0 1-1.987-.395c-1.165.378-2.42.556-3.697.556-1.77 0-3.513-.345-5.112-1.122-.122-.06-.239-.122-.361-.183-.033.017-.061.039-.094.056a9.538 9.538 0 0 1-4.746 1.249c-.661 0-1.31-.061-1.938-.19a4.78 4.78 0 0 1-.488.029h-3.48c-.278 0-.55-.023-.811-.067a4.885 4.885 0 0 1-.81.067h-3.658c-.728 0-1.416-.15-2.043-.417a5.403 5.403 0 0 1-2.087.417h-3.786c-2.181 0-4.047-1.255-4.863-3.275a8.9 8.9 0 0 1-.538.605c-1.105 1.115-2.47 1.87-3.969 2.32-1.282.389-2.614.555-3.958.555-1.754 0-3.497-.222-5.173-.738-1.282.477-2.676.694-4.102.694-1.771 0-3.508-.345-5.113-1.122a8.403 8.403 0 0 1-.316-.16l-.056.033a9.424 9.424 0 0 1-2.109.882 5.259 5.259 0 0 1-4.885 3.342h-3.658a5.254 5.254 0 0 1-4.751-3.02c-.361.028-.728.045-1.094.045-1.427 0-2.831-.222-4.158-.716a5.176 5.176 0 0 1-2.337.555h-3.641a5.258 5.258 0 0 1-4.652-2.831c-.011 0-.022-.006-.033-.006v0z" clip-rule="evenodd"/><path fill="#714B8F" d="M13.742 19.846c.466.178.838.422 1.116.75.26.338.388.727.388 1.165 0 .61-.21 1.133-.649 1.566-.438.438-1.021.777-1.748.988-.728.227-1.555.344-2.443.344-1.52 0-2.898-.228-4.146-.683l.921-2.415c.927.345 1.96.506 3.125.506.389 0 .7-.05.922-.145.227-.1.344-.244.344-.455 0-.177-.05-.288-.145-.372-.116-.066-.294-.1-.538-.1h-2.02v-2.037h1.681c.278 0 .472-.033.6-.11.11-.084.178-.195.178-.378 0-.178-.084-.306-.261-.389-.178-.078-.467-.128-.889-.128-.81 0-1.748.178-2.83.55l-.828-2.315c1.377-.533 2.687-.794 3.936-.794 1.327 0 2.41.211 3.27.65.854.438 1.276 1.082 1.276 1.91 0 .388-.11.743-.338 1.082-.228.344-.533.6-.922.81zM20.181 15.428c1.554 0 2.737.338 3.564 1.038.827.694 1.232 1.782 1.232 3.22v4.762h-3.402v-1.166c-.422.888-1.26 1.327-2.51 1.327-.693 0-1.293-.117-1.781-.372-.5-.244-.872-.566-1.116-.988a2.533 2.533 0 0 1-.389-1.393c0-.877.339-1.538 1.005-1.993.666-.45 1.682-.677 3.042-.677h1.476c-.116-.7-.682-1.038-1.67-1.038-.406 0-.81.066-1.21.177-.406.128-.767.311-1.055.522L16.2 16.432a6.48 6.48 0 0 1 1.843-.743 8.83 8.83 0 0 1 2.137-.261zm-.01 6.977c.254 0 .482-.06.693-.21.21-.145.355-.356.455-.634v-.61h-.91c-.744 0-1.116.238-1.116.744 0 .21.083.372.244.5.145.15.355.21.633.21zM34.997 24.448l-.017-3.969-1.876 3.27h-1.538l-1.815-3.353v4.052h-3.286v-8.86h3.869l2.104 4.13 2.381-4.13h3.43l.034 8.86h-3.286zM44.55 24.609c-.988 0-1.865-.194-2.642-.6a4.41 4.41 0 0 1-1.843-1.637 4.305 4.305 0 0 1-.667-2.36c0-.893.228-1.687.667-2.38.438-.7 1.049-1.233 1.843-1.622.777-.388 1.654-.582 2.642-.582s1.876.194 2.67.582c.777.39 1.393.922 1.831 1.621.433.694.644 1.488.644 2.382 0 .888-.21 1.665-.644 2.359a4.483 4.483 0 0 1-1.831 1.637c-.794.406-1.682.6-2.67.6zm0-2.848c.422 0 .76-.166 1.032-.471.278-.311.405-.728.405-1.277 0-.555-.127-.977-.405-1.283a1.312 1.312 0 0 0-1.032-.455c-.422 0-.76.15-1.038.456-.272.305-.406.727-.406 1.282 0 .55.134.966.406 1.276.277.306.616.472 1.038.472zM58.36 19.802c.972.372 1.455 1.049 1.455 2.054 0 .81-.322 1.443-.955 1.892-.633.472-1.57.7-2.803.7h-5.23v-8.86h4.974c1.183 0 2.104.195 2.77.6.661.405.983.988.983 1.715 0 .406-.095.777-.305 1.105-.211.322-.5.583-.889.794zm-4.324-.716h1.438c.538 0 .794-.211.794-.633 0-.206-.061-.355-.178-.45-.128-.1-.339-.144-.616-.144h-1.438v1.227zm1.699 3.092c.533 0 .794-.228.794-.661 0-.422-.261-.633-.794-.633h-1.699v1.294h1.699zM61.014 15.589h3.641v4.002l3.059-4.002h3.37v8.859h-3.642v-4.019L64.4 24.448h-3.386v-8.86zM81.186 18.442h-2.704v6.006h-3.64v-6.006h-2.704v-2.853h9.048v2.853zM82.24 15.589h3.642v4.002l3.058-4.002h3.37v8.859h-3.647v-4.019l-3.042 4.019h-3.38v-8.86zM132.165 15.589v8.859h-3.641V21.45c-.516.311-1.199.456-2.043.456-1.276 0-2.231-.295-2.864-.877-.633-.567-.938-1.488-.938-2.737v-2.703h3.641v2.464c0 .433.084.744.261.922.161.177.422.26.777.26.439 0 .827-.083 1.166-.244V15.59h3.641zM143.19 20.013c0 .044-.017.338-.045.855h-6.156c.133.338.344.582.65.76.305.178.677.278 1.132.278.389 0 .711-.05.988-.145.261-.1.55-.26.855-.505l1.915 1.926c-.86.955-2.154 1.427-3.869 1.427-1.071 0-2.009-.194-2.82-.6-.81-.388-1.438-.938-1.876-1.637a4.342 4.342 0 0 1-.666-2.36c0-.893.227-1.687.666-2.38.438-.7 1.038-1.233 1.798-1.622.761-.388 1.599-.582 2.554-.582.894 0 1.721.177 2.464.533.728.36 1.327.877 1.766 1.57.433.7.644 1.521.644 2.482zm-4.841-2.093c-.372 0-.694.1-.938.31-.244.212-.405.5-.483.872h2.848c-.084-.372-.244-.66-.489-.871-.238-.211-.566-.31-.938-.31zM150.411 15.428a4.32 4.32 0 0 1 2.154.55c.644.371 1.166.926 1.554 1.62.372.694.566 1.505.566 2.426 0 .927-.194 1.72-.566 2.415a4.152 4.152 0 0 1-1.554 1.604 4.335 4.335 0 0 1-2.154.566c-.988 0-1.732-.261-2.248-.76v3.74h-3.658v-12h3.481v.732c.532-.6 1.343-.893 2.425-.893zm-.871 6.333c.416 0 .76-.15 1.032-.455.278-.31.405-.727.405-1.282 0-.55-.127-.988-.405-1.294a1.32 1.32 0 0 0-1.032-.455c-.422 0-.766.15-1.038.456-.278.305-.405.743-.405 1.293 0 .555.127.971.405 1.282.272.305.616.455 1.038.455zM165.177 20.013c0 .044-.017.338-.05.855h-6.151c.128.338.339.582.644.76.311.178.683.278 1.138.278.389 0 .711-.05.988-.145.256-.1.55-.26.855-.505l1.91 1.926c-.855.955-2.154 1.427-3.869 1.427-1.066 0-2.01-.194-2.815-.6-.81-.388-1.443-.938-1.882-1.637a4.398 4.398 0 0 1-.66-2.36c0-.893.228-1.687.66-2.38.439-.7 1.038-1.233 1.799-1.622.76-.388 1.604-.582 2.559-.582.888 0 1.715.177 2.459.533.733.36 1.327.877 1.765 1.57.439.7.65 1.521.65 2.482zm-4.841-2.093c-.372 0-.699.1-.938.31-.244.212-.405.5-.488.872h2.847c-.077-.372-.238-.66-.483-.871-.244-.211-.566-.31-.938-.31zM173.253 19.846c.472.178.844.422 1.116.75.261.338.389.727.389 1.165 0 .61-.211 1.133-.644 1.566-.439.438-1.022.777-1.749.988-.733.227-1.554.344-2.448.344-1.521 0-2.897-.228-4.141-.683l.922-2.415c.921.345 1.959.506 3.125.506.388 0 .694-.05.921-.145.228-.1.339-.244.339-.455 0-.177-.044-.288-.144-.372-.111-.066-.289-.1-.533-.1h-2.026v-2.037h1.687c.272 0 .466-.033.594-.11.117-.084.178-.195.178-.378 0-.178-.078-.306-.256-.389-.177-.078-.471-.128-.893-.128-.805 0-1.749.178-2.831.55l-.827-2.315c1.376-.533 2.692-.794 3.935-.794 1.327 0 2.415.211 3.27.65.86.438 1.282 1.082 1.282 1.91a1.9 1.9 0 0 1-.344 1.082c-.222.344-.533.6-.922.81zM190.594 15.589l-3.563 8.859h-3.786l-3.564-8.86h3.758l1.777 4.747 1.915-4.746h3.463zM191.161 15.589h3.658v8.859h-3.658v-8.86zm1.826-.71c-.661 0-1.182-.178-1.582-.534a1.68 1.68 0 0 1-.616-1.326c0-.539.211-.988.616-1.35.4-.338.921-.516 1.582-.516.666 0 1.199.162 1.604.506.405.338.6.76.6 1.293 0 .566-.195 1.021-.6 1.377-.405.372-.938.55-1.604.55zM202.346 15.428a4.3 4.3 0 0 1 2.153.55c.65.371 1.166.91 1.555 1.603.372.694.566 1.505.566 2.432 0 .921-.194 1.732-.566 2.425-.389.694-.905 1.233-1.555 1.605a4.315 4.315 0 0 1-2.153.566c-1.083 0-1.893-.294-2.426-.894v.733h-3.481V12.436h3.658v3.752c.517-.5 1.261-.76 2.249-.76zm-.872 6.333c.422 0 .761-.166 1.033-.472.277-.31.405-.727.405-1.276 0-.555-.128-.977-.405-1.283a1.313 1.313 0 0 0-1.033-.455c-.422 0-.76.15-1.038.456-.277.305-.405.727-.405 1.282 0 .55.128.966.405 1.276.278.306.616.472 1.038.472zM217.194 20.013c0 .044-.016.338-.05.855h-6.15c.128.338.339.582.644.76.311.178.683.278 1.132.278.389 0 .716-.05.988-.145.261-.1.555-.26.861-.505l1.909 1.926c-.86.955-2.154 1.427-3.869 1.427-1.066 0-2.009-.194-2.814-.6-.81-.388-1.443-.938-1.882-1.637-.438-.694-.66-1.488-.66-2.36 0-.893.222-1.687.66-2.38.439-.7 1.038-1.233 1.799-1.622.76-.388 1.604-.582 2.559-.582.888 0 1.715.177 2.459.533a4.31 4.31 0 0 1 1.765 1.57c.438.7.649 1.521.649 2.482zm-4.84-2.093c-.372 0-.699.1-.938.31-.244.212-.405.5-.489.872h2.848c-.078-.372-.239-.66-.483-.871-.244-.211-.566-.31-.938-.31zM221.824 16.544c.649-.744 1.604-1.116 2.864-1.116v3.236a5.376 5.376 0 0 0-.81-.061c-1.244 0-1.877.633-1.877 1.91v3.935h-3.658v-8.86h3.481v.956zM117.406 8.811c-.65-.6-3.287-2.509-9.154-2.531 0 0-6.916-.417-10.286 2.675-1.876 1.877-2.536 4.624-2.609 8.033-.072 3.402-.155 9.786 5.995 11.518v2.642s-.044 1.066.666 1.282c.85.267 1.349-.55 2.165-1.42a87.228 87.228 0 0 0 1.527-1.727c4.207.35 7.438-.455 7.81-.578.849-.272 5.656-.888 6.433-7.271.811-6.584-.388-10.741-2.547-12.623zm.71 12.145c-.66 5.324-4.557 5.662-5.273 5.896-.311.094-3.153.799-6.722.571 0 0-2.659 3.209-3.492 4.047-.272.272-.566.244-.561-.294 0-.356.017-4.386.017-4.386-.006 0-.006 0 0 0-5.212-1.448-4.901-6.883-4.846-9.725.056-2.836.594-5.168 2.182-6.739 2.853-2.586 8.726-2.198 8.726-2.198 4.962.017 7.338 1.516 7.888 2.015 1.831 1.571 2.764 5.318 2.081 10.813zM111 16.816c.016.444-.644.471-.661.033-.061-1.127-.583-1.677-1.671-1.738-.438-.022-.399-.688.034-.66 1.432.077 2.226.899 2.298 2.364zm1.038.582c.05-2.176-1.305-3.874-3.88-4.063-.439-.033-.389-.694.044-.66 2.97.216 4.552 2.259 4.496 4.734-.005.444-.671.422-.66-.01zm2.409.683c0 .444-.661.444-.661.006-.033-4.175-2.814-6.445-6.189-6.473-.433-.005-.433-.66 0-.66 3.775.027 6.811 2.63 6.85 7.127zm-.583 5.024v.01c-.549.972-1.587 2.049-2.653 1.705l-.006-.017c-1.082-.3-3.63-1.61-5.234-2.892a13.148 13.148 0 0 1-2.171-2.17 16.481 16.481 0 0 1-1.582-2.387c-1.088-1.97-1.326-2.853-1.326-2.853-.345-1.066.727-2.099 1.704-2.654h.011c.466-.244.921-.16 1.221.2 0 0 .633.76.905 1.133.255.35.599.91.783 1.22.31.556.116 1.128-.195 1.36l-.61.495c-.317.25-.272.716-.272.716s.91 3.447 4.318 4.318c0 0 .467.04.716-.272l.489-.616c.238-.305.805-.5 1.365-.188.75.427 1.71 1.082 2.343 1.681.361.295.444.739.194 1.21z"/></svg>