<svg xmlns="http://www.w3.org/2000/svg" fill="none" viewBox="0 0 266 37"><path fill="#fff" fill-rule="evenodd" stroke="#898989" stroke-miterlimit="22.926" stroke-width=".9" d="M91.594 25.888c-.4.451-.84.868-1.335 1.247-2.043 1.586-4.513 2.237-7.068 2.237h-5.158a6.541 6.541 0 0 1-1.881-.273 6.607 6.607 0 0 1-1.887.273h-3.65a6.41 6.41 0 0 1-1.77-.245 6.41 6.41 0 0 1-1.77.245H63.67c-.178 0-.35-.006-.529-.023-.64.123-1.307.184-1.986.184-1.347 0-2.671-.217-3.918-.695l-.417.133a15.145 15.145 0 0 1-4.352.612c-1.235 0-2.465-.105-3.673-.334-.406.078-.829.123-1.257.123h-3.412c-.178 0-.35-.006-.523-.023-.645.123-1.313.184-1.992.184-.785 0-1.564-.072-2.32-.228a7.27 7.27 0 0 1-.991.067h-4.318c-.429 0-.846-.04-1.252-.111a6.732 6.732 0 0 1-1.214.11H27.85c-.25 0-.5-.016-.745-.044a6.63 6.63 0 0 1-.746.045h-3.411c-.178 0-.351-.006-.523-.023-.646.123-1.314.184-1.993.184-1.346 0-2.67-.217-3.917-.695l-.418.133a15.135 15.135 0 0 1-4.346.612c-2.187 0-4.352-.328-6.41-1.08-1.72-.628-2.972-1.786-3.729-3.45-.757-1.663-.812-3.366-.156-5.075l.707-1.847-.5-1.402a6.573 6.573 0 0 1 3.822-8.337c2.02-.779 4.14-1.235 6.31-1.235 1.692 0 3.373.228 4.948.801.356-.117.712-.217 1.074-.311 1.224-.3 2.476-.462 3.734-.462 1.385 0 2.749.172 4.034.567a6.51 6.51 0 0 1 2.265-.406h3.667c.462 0 .913.05 1.347.145.45-.095.918-.145 1.397-.145h3.862c.512 0 1.013.056 1.491.162a15.428 15.428 0 0 1 3.117-.323c1.619 0 3.205.24 4.68.784a16.909 16.909 0 0 1 5.108-.812c1.692 0 3.367.228 4.947.801a15.595 15.595 0 0 1 4.808-.774c1.252 0 2.493.145 3.673.463a6.497 6.497 0 0 1 1.959-.3h9.07c.179 0 .357.01.53.021.172-.01.35-.022.528-.022h3.65a6.583 6.583 0 0 1 5.649 3.217c.795.256 1.558.6 2.276 1.051a10.98 10.98 0 0 1 1.569-.75l15.576-6.395c2.254-.924 4.502-1.858 6.756-2.793.083-.034.155-.062.244-.095 4.903-1.809 10.117.74 10.985 5.765h.913c.373 0 .746.034 1.102.095a6.595 6.595 0 0 1 1.102-.095h3.656c.818 0 1.603.156 2.332.429 1.229-.395 2.52-.59 3.834-.59 1.313 0 2.61.195 3.845.6a6.507 6.507 0 0 1 2.354-.439h3.489c.139 0 .284.006.417.017a11.562 11.562 0 0 1 2.02-.178c1.67 0 3.295.367 4.786 1.096 1.608-.74 3.35-1.096 5.131-1.096 1.536 0 3.044.267 4.463.823 1.692-.545 3.439-.851 5.225-.851 1.976 0 3.935.312 5.738 1.119a6.572 6.572 0 0 1 5.459-2.922h3.667c1.92 0 3.656.83 4.858 2.154a12.547 12.547 0 0 1 3.372-.312 6.575 6.575 0 0 1 5.521-3.01h3.667a6.584 6.584 0 0 1 5.526 3.016c.217-.012.434-.017.657-.017 1.758 0 3.472.35 5.069 1.074a11 11 0 0 1 4.764-1.074c.701 0 1.391.067 2.053.189.189-.017.384-.028.579-.028h3.489c.273 0 .545.022.812.05a7.78 7.78 0 0 1 .813-.05h3.489c.234 0 .462.017.69.04.707-.134 1.436-.201 2.181-.201.679 0 1.33.106 1.948.295a15.311 15.311 0 0 1 2.983-.295c1.402 0 2.788.178 4.09.584a6.487 6.487 0 0 1 2.304-.423h3.495c.178 0 .35.011.528.022a10.63 10.63 0 0 1 1.981-.183c.98 0 1.942.128 2.872.39.935-.262 1.897-.39 2.877-.39 2.766 0 5.342.99 7.279 2.977 2.003 2.053 2.832 4.752 2.832 7.574V22.8c0 3.617-2.955 6.572-6.572 6.572h-3.667c-.368 0-.724-.028-1.074-.09a6.158 6.158 0 0 1-1.069.09h-3.667c-.367 0-.723-.028-1.074-.09a6.205 6.205 0 0 1-1.068.09h-3.673c-.267 0-.534-.017-.79-.05-.262.033-.529.05-.796.05h-3.411c-.178 0-.351-.006-.523-.023-.646.123-1.314.184-1.993.184-1.341 0-2.665-.217-3.912-.695a6.511 6.511 0 0 1-2.593.534h-1.931a9.458 9.458 0 0 1-.351.334c-2.331 2.114-5.314 2.977-8.414 2.977-1.369 0-2.732-.15-4.062-.479-1.419-.35-2.782-.901-4.007-1.714a6.813 6.813 0 0 1-1.179-.985c-.317.017-.64.028-.963.028-1.402 0-2.788-.195-4.112-.617a6.582 6.582 0 0 1-2.41.456h-3.667a6.44 6.44 0 0 1-2.031-.323 13.565 13.565 0 0 1-3.668.484c-1.363 0-2.715-.184-4.006-.584-1.225.412-2.521.584-3.834.584-2.61 0-5.115-.729-7.112-2.448-1.08.862-2.326 1.48-3.668 1.886-1.407.423-2.877.612-4.346.612-1.747 0-3.478-.211-5.153-.679-1.313.429-2.715.63-4.146.63-1.875 0-3.711-.346-5.42-1.12-.4.201-.818.373-1.241.518a6.586 6.586 0 0 1-5.854 3.59h-3.667a6.574 6.574 0 0 1-5.504-2.989h-.356a13.46 13.46 0 0 1-4.107-.617 6.491 6.491 0 0 1-2.398.456h-3.656a6.575 6.575 0 0 1-5.521-3.016c-.033-.006-.066-.017-.1-.028l-.322 1.959c-.384 3.494-2.766 6.555-6.305 7.373-2.944.685-6.177-.44-8.581-2.181-2.404-1.57-5.081-3.24-7.196-5.02a8.673 8.673 0 0 1-1.057-1.007 12.744 12.744 0 0 1-3.64-.44 49.103 49.103 0 0 1-3.539-1.124z" clip-rule="evenodd"/><path fill="#38A7DF" d="M93.609 16.968l15.637-6.422c1.536-.629 6.778-2.8 6.778-2.8s2.443-.9 2.259 1.359c-.089.901-.629 4.246-1.174 7.768l-1.719 10.579s-.089 1.536-1.264 1.809c-1.174.267-2.982-.907-3.344-1.18-.273-.178-5.059-3.25-6.778-4.697-.451-.362-.996-1.18.089-2.17 2.443-2.26 5.331-4.975 7.051-6.69.812-.811 1.625-2.71-1.72-.36l-9.488 6.415s-1.085.63-3.072.09c-1.992-.54-4.34-1.447-4.34-1.447s-1.714-1.169 1.085-2.254z"/><path fill="#37A6DF" d="M15.089 18.192c.473.179.846.418 1.124.746.256.34.39.73.39 1.169a2.13 2.13 0 0 1-.651 1.575c-.44.434-1.024.779-1.753.99a8.427 8.427 0 0 1-2.449.34c-1.53 0-2.905-.229-4.157-.685l.924-2.415c.924.34 1.964.5 3.133.5.39 0 .701-.05.924-.144.228-.094.345-.245.345-.456 0-.178-.05-.29-.15-.373-.112-.061-.29-.095-.535-.095h-2.03v-2.047h1.69c.274 0 .468-.034.602-.112a.428.428 0 0 0 .178-.373.398.398 0 0 0-.262-.39c-.178-.083-.467-.133-.89-.133-.813 0-1.753.178-2.844.557l-.823-2.32c1.374-.54 2.693-.796 3.94-.796 1.33 0 2.42.211 3.277.645.863.44 1.286 1.09 1.286 1.914 0 .39-.117.752-.34 1.091-.228.34-.54.601-.929.813zM21.55 13.757c1.558 0 2.743.345 3.572 1.04.83.702 1.236 1.787 1.236 3.228V22.8h-3.411V21.63c-.423.89-1.264 1.33-2.516 1.33-.695 0-1.296-.111-1.786-.373-.5-.245-.874-.567-1.119-.99a2.526 2.526 0 0 1-.39-1.397c0-.874.34-1.541 1.008-1.992.662-.457 1.686-.685 3.05-.685h1.474c-.111-.695-.679-1.04-1.67-1.04-.405 0-.812.066-1.218.183a3.64 3.64 0 0 0-1.052.518l-1.168-2.421a6.498 6.498 0 0 1 1.847-.746 8.816 8.816 0 0 1 2.143-.261zm-.017 7c.262 0 .49-.066.701-.211.212-.15.356-.362.451-.634v-.618h-.907c-.746 0-1.118.245-1.118.745 0 .212.077.373.244.507.145.145.357.211.63.211zM131.511 13.924V22.8h-3.656v-3.005c-.518.311-1.197.456-2.043.456-1.279 0-2.242-.29-2.871-.874-.634-.573-.94-1.497-.94-2.743v-2.71h3.65v2.465c0 .44.078.746.256.924.167.178.423.261.785.261.434 0 .823-.083 1.163-.245v-3.405h3.656zM142.563 18.353c0 .05-.017.34-.05.857h-6.166c.128.345.339.585.645.763.312.183.685.278 1.141.278.39 0 .712-.05.991-.145.256-.1.55-.261.857-.506l1.914 1.93c-.857.964-2.159 1.431-3.879 1.431-1.068 0-2.014-.195-2.821-.601-.813-.39-1.447-.94-1.887-1.636a4.434 4.434 0 0 1-.662-2.37c0-.897.228-1.687.662-2.388a4.516 4.516 0 0 1 1.803-1.625c.763-.39 1.609-.584 2.566-.584.89 0 1.719.184 2.465.54.734.356 1.33.873 1.77 1.574.439.696.651 1.525.651 2.482zm-4.853-2.092c-.373 0-.701.095-.94.306-.245.212-.407.5-.49.874h2.855c-.078-.373-.24-.662-.484-.874-.245-.211-.568-.306-.941-.306zM149.802 13.757c.78 0 1.492.184 2.154.556.651.373 1.169.924 1.558 1.62.379.7.573 1.508.573 2.437 0 .924-.194 1.72-.573 2.415-.389.701-.907 1.236-1.558 1.608a4.308 4.308 0 0 1-2.154.568c-.99 0-1.736-.261-2.259-.762v3.75h-3.667V13.924h3.489v.729c.534-.601 1.347-.896 2.437-.896zm-.879 6.35c.423 0 .763-.145 1.041-.457.273-.306.406-.729.406-1.28 0-.55-.133-.99-.406-1.302a1.33 1.33 0 0 0-1.041-.45c-.423 0-.762.144-1.04.45-.273.311-.401.751-.401 1.302s.128.974.401 1.28c.278.312.617.456 1.04.456zM164.599 18.353c0 .05-.011.34-.044.857h-6.172c.134.345.345.585.652.763.311.183.684.278 1.135.278.389 0 .718-.05.99-.145.262-.1.551-.261.863-.506l1.914 1.93c-.862.964-2.159 1.431-3.878 1.431-1.075 0-2.015-.195-2.827-.601-.807-.39-1.442-.94-1.881-1.636a4.387 4.387 0 0 1-.668-2.37c0-.897.228-1.687.668-2.388a4.503 4.503 0 0 1 1.803-1.625c.762-.39 1.608-.584 2.565-.584.89 0 1.72.184 2.465.54.729.356 1.33.873 1.77 1.574.44.696.645 1.525.645 2.482zm-4.852-2.092c-.373 0-.696.095-.941.306-.239.212-.406.5-.484.874h2.855a1.556 1.556 0 0 0-.484-.874c-.245-.211-.573-.306-.946-.306zM172.702 18.192c.467.179.84.418 1.118.746.262.34.39.73.39 1.169 0 .617-.212 1.135-.651 1.575-.434.434-1.019.779-1.753.99a8.427 8.427 0 0 1-2.449.34c-1.524 0-2.905-.229-4.157-.685l.93-2.415c.923.34 1.964.5 3.133.5.384 0 .695-.05.924-.144.228-.094.339-.245.339-.456 0-.178-.05-.29-.145-.373-.117-.061-.295-.095-.534-.095h-2.031v-2.047h1.686c.278 0 .473-.034.601-.112.117-.083.178-.194.178-.373a.394.394 0 0 0-.256-.39c-.178-.083-.473-.133-.896-.133-.812 0-1.753.178-2.838.557l-.829-2.32c1.38-.54 2.693-.796 3.945-.796 1.33 0 2.416.211 3.278.645.857.44 1.28 1.09 1.28 1.914 0 .39-.111.752-.339 1.091-.229.34-.535.601-.924.813zM32.212 19.845h-.696V22.8H27.85v-8.876h3.667v3.116h.796l1.948-3.116h3.862l-2.855 4.251L38.3 22.8h-4.318l-1.77-2.955zM42.73 13.757c1.558 0 2.743.345 3.572 1.04.83.702 1.236 1.787 1.236 3.228V22.8h-3.412V21.63c-.423.89-1.263 1.33-2.515 1.33-.696 0-1.296-.111-1.786-.373-.501-.245-.874-.567-1.119-.99a2.526 2.526 0 0 1-.39-1.397c0-.874.34-1.541 1.008-1.992.662-.457 1.686-.685 3.05-.685h1.48c-.117-.695-.685-1.04-1.675-1.04-.407 0-.813.066-1.219.183a3.64 3.64 0 0 0-1.052.518l-1.168-2.421a6.496 6.496 0 0 1 1.847-.746 8.85 8.85 0 0 1 2.143-.261zm-.017 7c.261 0 .49-.066.701-.211.212-.15.356-.362.456-.634v-.618h-.912c-.746 0-1.119.245-1.119.745 0 .212.084.373.245.507.145.145.356.211.629.211zM55.813 18.192c.472.179.845.418 1.118.746.262.34.39.73.39 1.169 0 .617-.212 1.135-.646 1.575-.44.434-1.024.779-1.753.99a8.465 8.465 0 0 1-2.454.34c-1.525 0-2.905-.229-4.151-.685l.923-2.415c.924.34 1.965.5 3.133.5.39 0 .696-.05.924-.144.228-.094.34-.245.34-.456 0-.178-.045-.29-.145-.373-.111-.061-.29-.095-.534-.095h-2.031v-2.047h1.691c.273 0 .468-.034.596-.112.117-.083.178-.194.178-.373a.393.393 0 0 0-.256-.39c-.178-.083-.473-.133-.896-.133-.807 0-1.753.178-2.838.557l-.83-2.32c1.38-.54 2.7-.796 3.946-.796 1.33 0 2.42.211 3.278.645.862.44 1.285 1.09 1.285 1.914 0 .39-.117.752-.345 1.091-.222.34-.534.601-.923.813zM62.273 13.757c1.558 0 2.744.345 3.573 1.04.823.702 1.23 1.787 1.23 3.228V22.8H63.67V21.63c-.423.89-1.269 1.33-2.515 1.33-.702 0-1.303-.111-1.787-.373-.506-.245-.879-.567-1.118-.99a2.526 2.526 0 0 1-.39-1.397c0-.874.34-1.541 1.002-1.992.668-.457 1.692-.685 3.055-.685h1.475c-.111-.695-.68-1.04-1.67-1.04-.406 0-.812.066-1.218.183a3.748 3.748 0 0 0-1.058.518l-1.168-2.421a6.604 6.604 0 0 1 1.853-.746 8.816 8.816 0 0 1 2.142-.261zm-.016 7c.261 0 .49-.066.695-.211.212-.15.362-.362.456-.634v-.618h-.907c-.745 0-1.124.245-1.124.745 0 .212.084.373.245.507.15.145.356.211.635.211zM76.976 16.779h-2.71v6.02h-3.651v-6.02h-2.71v-2.855h9.07v2.855zM83.648 16.6c1.185 0 2.109.256 2.743.78.635.517.957 1.246.957 2.209 0 .985-.373 1.78-1.102 2.348-.75.573-1.77.863-3.055.863h-5.158v-8.876h3.65V16.6h1.965zm-.83 3.734c.54 0 .796-.278.796-.812 0-.517-.256-.779-.795-.779h-1.136v1.591h1.136zM186.742 22.493c-.551.306-1.302.468-2.259.468-1.247 0-2.204-.306-2.872-.907-.668-.601-1.007-1.497-1.007-2.694v-2.276h-1.219v-2.676h1.219v-2.482h3.667v2.482h1.82v2.676h-1.82v2.243c0 .273.067.484.212.634a.748.748 0 0 0 .55.223c.312 0 .585-.078.83-.24l.879 2.55zM196.87 18.353c0 .05-.017.34-.05.857h-6.166c.128.345.339.585.645.763.312.183.685.278 1.136.278.389 0 .718-.05.99-.145.262-.1.551-.261.863-.506l1.914 1.93c-.862.964-2.159 1.431-3.879 1.431-1.074 0-2.014-.195-2.821-.601-.812-.39-1.447-.94-1.886-1.636a4.383 4.383 0 0 1-.663-2.37c0-.897.223-1.687.663-2.388a4.503 4.503 0 0 1 1.803-1.625c.762-.39 1.608-.584 2.565-.584.89 0 1.719.184 2.465.54.729.356 1.33.873 1.77 1.574.439.696.651 1.525.651 2.482zm-4.853-2.092c-.378 0-.701.095-.946.306-.239.212-.4.5-.484.874h2.855a1.556 1.556 0 0 0-.484-.874c-.245-.211-.568-.306-.941-.306zM198.022 10.758h3.667V22.8h-3.667V10.758zM212.757 18.353c0 .05-.016.34-.05.857h-6.165c.128.345.339.585.651.763.306.183.679.278 1.135.278.389 0 .712-.05.99-.145.256-.1.551-.261.857-.506l1.915 1.93c-.857.964-2.159 1.431-3.879 1.431-1.068 0-2.009-.195-2.821-.601-.813-.39-1.447-.94-1.887-1.636a4.434 4.434 0 0 1-.662-2.37c0-.897.228-1.687.662-2.388a4.516 4.516 0 0 1 1.803-1.625c.763-.39 1.608-.584 2.566-.584.89 0 1.719.184 2.465.54.729.356 1.33.873 1.769 1.574.44.696.651 1.525.651 2.482zm-4.852-2.092c-.373 0-.701.095-.941.306-.244.212-.406.5-.489.874h2.855c-.078-.373-.24-.662-.485-.874-.244-.211-.567-.306-.94-.306zM223.826 13.924v7.106c0 1.686-.473 2.955-1.397 3.812-.94.846-2.27 1.269-4.007 1.269-.895 0-1.719-.1-2.487-.279-.762-.194-1.425-.467-1.959-.823l1.23-2.499c.345.256.779.468 1.313.63.54.16 1.041.244 1.531.244.729 0 1.263-.161 1.602-.473.345-.306.507-.78.507-1.38v-.162c-.551.635-1.364.941-2.454.941a4.302 4.302 0 0 1-2.109-.534 3.795 3.795 0 0 1-1.575-1.508c-.39-.651-.585-1.397-.585-2.243 0-.84.195-1.586.585-2.237a4.013 4.013 0 0 1 1.575-1.508 4.481 4.481 0 0 1 2.109-.523c1.218 0 2.098.39 2.632 1.168v-1.001h3.489zm-5.148 5.531c.44 0 .796-.128 1.091-.406.273-.256.423-.601.423-1.024 0-.417-.15-.762-.423-1.018-.295-.262-.651-.39-1.091-.39-.434 0-.806.128-1.085.39-.289.256-.439.6-.439 1.018 0 .423.15.768.439 1.024.295.278.651.406 1.085.406zM228.94 14.88c.645-.75 1.603-1.123 2.871-1.123v3.25a4.825 4.825 0 0 0-.812-.067c-1.252 0-1.881.634-1.881 1.914V22.8h-3.667v-8.876h3.489v.957zM236.742 13.757c1.558 0 2.743.345 3.572 1.04.83.702 1.236 1.787 1.236 3.228V22.8h-3.411V21.63c-.423.89-1.264 1.33-2.516 1.33-.695 0-1.296-.111-1.786-.373-.501-.245-.874-.567-1.119-.99a2.572 2.572 0 0 1-.389-1.397c0-.874.339-1.541 1.007-1.992.662-.457 1.686-.685 3.05-.685h1.48c-.117-.695-.685-1.04-1.675-1.04-.406 0-.813.066-1.219.183a3.73 3.73 0 0 0-1.052.518l-1.168-2.421a6.495 6.495 0 0 1 1.847-.746 8.857 8.857 0 0 1 2.143-.261zm-.017 7c.262 0 .49-.066.701-.211.212-.15.356-.362.451-.634v-.618h-.907c-.746 0-1.119.245-1.119.745 0 .212.084.373.245.507.145.145.357.211.629.211zM254.889 13.757c1.074 0 1.931.328 2.582.99.634.668.957 1.659.957 2.989V22.8h-3.667v-4.43c0-1.024-.329-1.525-.991-1.525-.339 0-.617.128-.829.39-.211.256-.323.662-.323 1.23V22.8h-3.667v-4.43c0-1.024-.328-1.525-.99-1.525a1.01 1.01 0 0 0-.83.39c-.211.256-.322.662-.322 1.23V22.8h-3.673v-8.876h3.495v.823c.662-.662 1.491-.99 2.509-.99.601 0 1.141.117 1.609.328.473.228.862.568 1.168 1.024.356-.44.796-.768 1.302-1.007a4.021 4.021 0 0 1 1.67-.345z"/></svg>