<svg xmlns="http://www.w3.org/2000/svg" fill="none" viewBox="0 0 65 65"><path fill="#222126" fill-rule="evenodd" d="M0 0h65v65H0V0z" clip-rule="evenodd"/><path fill="#EC268F" d="M29.703 11.905h.741v16.83h-1.063v-16.83h.322z"/><path fill="#00AFEF" d="M8.943 28.41V11.905h1.285l6.877 15.216L23.9 11.905h1.285v16.83h-1.064V13.967L17.484 28.65h-.353l-.021.05-.023-.05h-.44l-6.64-14.682v14.768H8.943v-.325z"/><path fill="#FFF212" d="M36.982 9.527v-.731h8.214v1.056h-8.214v-.325z"/><path fill="#EC268F" d="M29.354 9.584v-.788h1.112v1.11h-1.113v-.322z"/><path fill="#FEFEFE" d="M44.39 39.816l.613.305-6.219 13.631c-.38.822-.803 1.436-1.269 1.841-.491.43-1.024.63-1.601.603a2.79 2.79 0 0 1-.97-.093 4.496 4.496 0 0 1-1.037-.45l-.263-.153.445-.887.283.133c.343.158.645.27.902.335.237.057.432.075.588.055l.044-.006c.361 0 .692-.137.99-.413.326-.301.62-.767.88-1.39l.694-1.543-5.154-11.744.913-.457 4.852 11.075 5.01-10.992.299.15zM22.798 49.943v6.253h-1.066V39.783h1.066v2.326c.367-.603.796-1.1 1.293-1.484.819-.642 1.81-.978 2.964-1.006h.028c1.651.117 2.917.728 3.799 1.83.863 1.082 1.339 2.634 1.425 4.649v.018c-.029 2.049-.468 3.604-1.321 4.662-.871 1.079-2.148 1.633-3.835 1.661h-.01c-1.184-.028-2.192-.364-3.027-1a5.42 5.42 0 0 1-1.316-1.496zm4.366 1.433c1.331-.029 2.332-.465 3.003-1.313.689-.871 1.048-2.187 1.076-3.942-.08-1.736-.476-3.055-1.183-3.96-.686-.878-1.687-1.372-2.998-1.479-1.339.11-2.36.6-3.062 1.482-.718.902-1.121 2.215-1.202 3.944.11 1.672.528 2.946 1.259 3.822.72.858 1.755 1.342 3.107 1.446zM4.719 51.953V35.447c1.627 0 3.252-.005 4.88.003 2.933.03 5.15.73 6.648 2.1 1.506 1.378 2.273 3.414 2.299 6.105v.284c.012.356.015.702.002 1.04-.08 2.319-.79 4.092-2.124 5.317-1.326 1.216-3.26 1.877-5.798 1.98-.45.02-.92.02-1.412 0l-4.495.004v-.326zm1.066-15.441V51.21h3.44c2.89.11 5.018-.44 6.385-1.649 1.355-1.196 1.979-3.065 1.872-5.603v-.013c0-2.49-.681-4.352-2.04-5.58-1.371-1.237-3.449-1.853-6.228-1.853h-3.43z"/><path fill="#FFF212" d="M47.626 12.228l-.002 33.722L58.9 35.082l.793.793-7.03 6.692 7.617 9.204-.855.637-7.563-9.144-4.238 4.087v4.774H46.56c0-12.862-.002-25.727 0-38.59l-10.855 15.2h-1.154v-16.83h.977V27.1l10.855-15.195h1.243v.323z"/></svg>