<svg xmlns="http://www.w3.org/2000/svg" fill="none" viewBox="0 0 1440 902"><path fill="#fff" d="M363.631 1C163.784 1 0 34.95 0 34.95v835.565s163.784-33.949 363.631-33.949c199.847 0 356.369 33.949 356.369 33.949S879.026 901 1085.89 901c206.85 0 354.11-30.485 354.11-30.485V34.949s-147.26 30.485-354.11 30.485C879.026 65.434 720 34.95 720 34.95S563.478 1 363.631 1z"/><path stroke="#000" stroke-opacity=".1" stroke-width="2" d="M0 34.95S163.784 1 363.631 1C563.478 1 720 34.95 720 34.95s159.026 30.484 365.89 30.484c206.85 0 354.11-30.485 354.11-30.485M0 452.732s161.781-152.771 361.628-152.771C561.475 299.961 720 452.732 720 452.732s155.52 159.7 362.38 159.7c206.86 0 357.62-159.7 357.62-159.7M0 870.515s163.784-33.949 363.631-33.949c199.847 0 356.369 33.949 356.369 33.949S879.026 901 1085.89 901c206.85 0 354.11-30.485 354.11-30.485"/><path stroke="#000" stroke-opacity=".1" stroke-width="2" d="M0 61.06s163.659-41.375 363.506-41.375C563.353 19.685 720 61.061 720 61.061s158.807 38.56 365.67 38.56c206.86 0 354.33-38.56 354.33-38.56"/><path stroke="#000" stroke-opacity=".1" stroke-width="2" d="M0 87.172S163.534 38.37 363.381 38.37C563.228 38.37 720 87.172 720 87.172s158.588 46.637 365.45 46.637c206.86 0 354.55-46.637 354.55-46.637"/><path stroke="#000" stroke-opacity=".1" stroke-width="2" d="M0 113.283s163.409-56.228 363.256-56.228C563.103 57.055 720 113.283 720 113.283s158.369 54.713 365.23 54.713c206.86 0 354.77-54.713 354.77-54.713"/><path stroke="#000" stroke-opacity=".1" stroke-width="2" d="M0 139.395S163.283 75.74 363.13 75.74 720 139.395 720 139.395s158.15 62.789 365.01 62.789c206.86 0 354.99-62.789 354.99-62.789"/><path stroke="#000" stroke-opacity=".1" stroke-width="2" d="M0 165.506s163.158-71.08 363.005-71.08S720 165.505 720 165.505s157.93 70.865 364.79 70.865S1440 165.506 1440 165.506"/><path stroke="#000" stroke-opacity=".1" stroke-width="2" d="M0 191.618s163.033-78.508 362.88-78.508S720 191.618 720 191.618s157.711 78.94 364.57 78.94c206.86 0 355.43-78.94 355.43-78.94"/><path stroke="#000" stroke-opacity=".1" stroke-width="2" d="M0 217.729s162.908-85.934 362.755-85.934S720 217.729 720 217.729s157.492 87.017 364.35 87.017c206.86 0 355.65-87.017 355.65-87.017"/><path stroke="#000" stroke-opacity=".1" stroke-width="2" d="M0 243.841s162.783-93.361 362.63-93.361S720 243.841 720 243.841s157.273 95.092 364.13 95.092c206.86 0 355.87-95.092 355.87-95.092"/><path stroke="#000" stroke-opacity=".1" stroke-width="2" d="M0 269.952s162.657-100.787 362.504-100.787S720 269.952 720 269.952 877.054 373.12 1083.91 373.12c206.86 0 356.09-103.168 356.09-103.168"/><path stroke="#000" stroke-opacity=".1" stroke-width="2" d="M0 296.064S162.532 187.85 362.379 187.85 720 296.064 720 296.064s156.835 111.244 363.69 111.244c206.86 0 356.31-111.244 356.31-111.244"/><path stroke="#000" stroke-opacity=".1" stroke-width="2" d="M0 322.175s162.407-115.639 362.254-115.639S720 322.175 720 322.175s156.616 119.32 363.47 119.32c206.86 0 356.53-119.32 356.53-119.32"/><path stroke="#000" stroke-opacity=".1" stroke-width="2" d="M0 348.286s162.282-123.065 362.129-123.065S720 348.286 720 348.286s156.397 127.396 363.26 127.396c206.85 0 356.74-127.396 356.74-127.396"/><path stroke="#000" stroke-opacity=".1" stroke-width="2" d="M0 374.398s162.157-130.492 362.003-130.492C561.85 243.906 720 374.398 720 374.398S876.177 509.87 1083.04 509.87c206.86 0 356.96-135.472 356.96-135.472"/><path stroke="#000" stroke-opacity=".1" stroke-width="2" d="M0 400.509s162.031-137.918 361.878-137.918C561.725 262.591 720 400.509 720 400.509s155.958 143.548 362.82 143.548c206.86 0 357.18-143.548 357.18-143.548"/><path stroke="#000" stroke-opacity=".1" stroke-width="2" d="M0 426.621s161.906-145.345 361.753-145.345C561.6 281.276 720 426.621 720 426.621s155.739 151.624 362.6 151.624c206.86 0 357.4-151.624 357.4-151.624"/><path stroke="#000" stroke-opacity=".1" stroke-width="2" d="M0 478.844s161.906-145.345 361.753-145.345C561.6 333.499 720 478.844 720 478.844s155.739 151.623 362.6 151.623c206.86 0 357.4-151.623 357.4-151.623"/><path stroke="#000" stroke-opacity=".1" stroke-width="2" d="M0 504.955s162.031-137.919 361.878-137.919C561.725 367.036 720 504.955 720 504.955s155.958 143.548 362.82 143.548c206.86 0 357.18-143.548 357.18-143.548"/><path stroke="#000" stroke-opacity=".1" stroke-width="2" d="M0 531.066s162.157-130.492 362.003-130.492C561.85 400.574 720 531.066 720 531.066s156.177 135.472 363.04 135.472c206.86 0 356.96-135.472 356.96-135.472"/><path stroke="#000" stroke-opacity=".1" stroke-width="2" d="M0 557.178s162.282-123.066 362.129-123.066S720 557.178 720 557.178s156.397 127.396 363.26 127.396c206.85 0 356.74-127.396 356.74-127.396"/><path stroke="#000" stroke-opacity=".1" stroke-width="2" d="M0 583.289S162.407 467.65 362.254 467.65 720 583.289 720 583.289s156.616 119.32 363.47 119.32c206.86 0 356.53-119.32 356.53-119.32"/><path stroke="#000" stroke-opacity=".1" stroke-width="2" d="M0 609.401s162.532-108.213 362.379-108.213S720 609.401 720 609.401s156.835 111.244 363.69 111.244c206.86 0 356.31-111.244 356.31-111.244"/><path stroke="#000" stroke-opacity=".1" stroke-width="2" d="M0 635.512s162.657-100.787 362.504-100.787S720 635.512 720 635.512 877.054 738.68 1083.91 738.68c206.86 0 356.09-103.168 356.09-103.168"/><path stroke="#000" stroke-opacity=".1" stroke-width="2" d="M0 661.624s162.783-93.361 362.63-93.361S720 661.624 720 661.624s157.273 95.092 364.13 95.092c206.86 0 355.87-95.092 355.87-95.092"/><path stroke="#000" stroke-opacity=".1" stroke-width="2" d="M0 687.735s162.908-85.934 362.755-85.934S720 687.735 720 687.735s157.492 87.016 364.35 87.016c206.86 0 355.65-87.016 355.65-87.016"/><path stroke="#000" stroke-opacity=".1" stroke-width="2" d="M0 713.846s163.033-78.507 362.88-78.507S720 713.846 720 713.846s157.711 78.941 364.57 78.941c206.86 0 355.43-78.941 355.43-78.941"/><path stroke="#000" stroke-opacity=".1" stroke-width="2" d="M0 739.958s163.158-71.081 363.005-71.081S720 739.958 720 739.958s157.93 70.864 364.79 70.864S1440 739.958 1440 739.958"/><path stroke="#000" stroke-opacity=".1" stroke-width="2" d="M0 766.069s163.283-63.654 363.13-63.654S720 766.069 720 766.069s158.15 62.789 365.01 62.789c206.86 0 354.99-62.789 354.99-62.789"/><path stroke="#000" stroke-opacity=".1" stroke-width="2" d="M0 792.181s163.409-56.229 363.256-56.229c199.847 0 356.744 56.229 356.744 56.229s158.369 54.712 365.23 54.712c206.86 0 354.77-54.712 354.77-54.712"/><path stroke="#000" stroke-opacity=".1" stroke-width="2" d="M0 818.292s163.534-48.802 363.381-48.802C563.228 769.49 720 818.292 720 818.292s158.588 46.637 365.45 46.637c206.86 0 354.55-46.637 354.55-46.637"/><path stroke="#000" stroke-opacity=".1" stroke-width="2" d="M0 844.404s163.659-41.376 363.506-41.376c199.847 0 356.494 41.376 356.494 41.376s158.807 38.561 365.67 38.561c206.86 0 354.33-38.561 354.33-38.561"/></svg>