<svg xmlns="http://www.w3.org/2000/svg" fill="none" viewBox="0 0 60 60"><g filter="url(#filter0_d_61_7331)" transform="rotate(-90 30 26)"><circle cx="30" cy="26" r="25" fill="#fff"/><circle cx="30" cy="26" r="24.5" stroke="#000"/></g><path fill="#000" d="M23.458 35.5v-2.6c.459-.392.913-.78 1.363-1.162l1.375-1.15a39.609 39.609 0 0 0 2.75-2.526c.766-.783 1.354-1.537 1.762-2.262.409-.725.613-1.454.613-2.188 0-.8-.225-1.4-.675-1.8-.45-.408-1.13-.612-2.038-.612-.391 0-.796.046-1.212.137-.409.084-.821.209-1.238.375-.416.159-.833.346-1.25.563-.408.217-.808.458-1.2.725l-.337-3.675c.383-.183.804-.354 1.262-.512.467-.167.959-.313 1.475-.438a14.517 14.517 0 0 1 1.613-.313 12.568 12.568 0 0 1 1.675-.112c1.267 0 2.337.208 3.212.625.884.408 1.55 1 2 1.775.459.767.688 1.688.688 2.762 0 .884-.184 1.763-.55 2.638-.367.867-.925 1.738-1.675 2.613-.742.875-1.683 1.758-2.825 2.65l-2.463 1.937-.475-.75h8.188v3.3H23.458z"/><defs><filter id="filter0_d_61_7331" width="60" height="60" x="0" y="0" color-interpolation-filters="sRGB" filterUnits="userSpaceOnUse"><feFlood flood-opacity="0" result="BackgroundImageFix"/><feColorMatrix in="SourceAlpha" result="hardAlpha" values="0 0 0 0 0 0 0 0 0 0 0 0 0 0 0 0 0 0 127 0"/><feMorphology in="SourceAlpha" operator="dilate" radius="1" result="effect1_dropShadow_61_7331"/><feOffset dy="4"/><feGaussianBlur stdDeviation="2"/><feComposite in2="hardAlpha" operator="out"/><feColorMatrix values="0 0 0 0 0 0 0 0 0 0 0 0 0 0 0 0 0 0 0.25 0"/><feBlend in2="BackgroundImageFix" result="effect1_dropShadow_61_7331"/><feBlend in="SourceGraphic" in2="effect1_dropShadow_61_7331" result="shape"/></filter></defs></svg>