<svg width="37" height="43" viewBox="0 0 37 43" fill="none" xmlns="http://www.w3.org/2000/svg">
<path fill-rule="evenodd" clip-rule="evenodd" d="M31.9975 16.8578C32.0781 16.9403 32.1567 17.0248 32.2354 17.1103C34.6657 19.7639 35.8503 23.0759 35.8503 26.6665C35.8503 29.4619 35.0968 32.1156 33.6219 34.4896C32.0451 37.0267 29.7517 38.8881 27.0689 40.1571C24.2288 41.5019 21.0955 42 17.9729 42C15.4503 42 12.953 41.665 10.5188 41.0018C8.06611 40.3329 5.71929 39.3124 3.65016 37.8229C1.08876 35.979 0.269251 32.603 1.69851 29.7901L4.20166 24.8615C5.08233 23.1302 6.53392 21.9923 8.42536 21.5524C8.45741 21.5447 8.48848 21.5379 8.52052 21.5311V18.9959C8.52052 18.9532 8.52052 18.9095 8.52149 18.8667C5.12894 18.7444 2.40053 15.9402 2.40053 12.5186V7.35206C2.40053 3.85367 5.25419 1 8.75258 1H28.2263C31.7247 1 34.5783 3.85367 34.5783 7.35206V11.5253C34.5783 13.1293 34.0589 14.51 33.0005 15.716L31.9975 16.8578V16.8578Z" fill="white" stroke="#2B2B2A" stroke-miterlimit="22.9256"/>
<path d="M21.9471 18.6784C24.3706 19.0755 26.2387 19.9901 27.5505 21.3806C28.8623 22.8118 29.4973 24.5595 29.4973 26.6665C29.4973 28.2958 29.0604 29.7658 28.2263 31.1174C27.3913 32.5078 26.0795 33.5807 24.3706 34.4158C22.6228 35.2498 20.476 35.6479 17.9729 35.6479C16.0251 35.6479 14.0783 35.4091 12.2102 34.8527C10.3023 34.3362 8.67299 33.6205 7.36218 32.6671L9.86533 27.7394C10.9383 28.5337 12.1704 29.1298 13.5618 29.5677C14.9522 30.0047 16.3436 30.2426 17.8137 30.2426C19.4429 30.2426 20.7149 29.9251 21.6286 29.2891C22.5432 28.6929 23.02 27.819 23.02 26.6665C23.02 24.4012 21.2713 23.2487 17.8137 23.2487H14.8726V18.9959L20.5955 12.5186H8.7526V7.35205H28.2263V11.5253L21.9471 18.6784V18.6784Z" fill="#2B2B2A"/>
</svg>
