<svg width="38" height="320" viewBox="0 0 38 320" fill="none" xmlns="http://www.w3.org/2000/svg">
<line x1="20" y1="31" x2="20" y2="252" stroke="#2B2B2A" stroke-width="2"/>
<path fill-rule="evenodd" clip-rule="evenodd" d="M9.63007 19.0318C6.46383 18.6368 4 15.9235 4 12.6541V7.42679C4 3.88725 6.88724 1 10.4278 1H22.5711C26.1106 1 28.9979 3.88725 28.9979 7.42679V35.5732C28.9979 39.1128 26.1106 42 22.5711 42H16.0569C12.5173 42 9.63007 39.1128 9.63007 35.5732V19.0318V19.0318Z" fill="white" stroke="#2B2B2A" stroke-miterlimit="22.9256"/>
<path d="M22.5712 7.42688V35.5733H16.057V12.6542H10.4279V7.42688H22.5712Z" fill="#2B2B2A"/>
<path fill-rule="evenodd" clip-rule="evenodd" d="M9.91933 161.524C9.46978 161.363 9.03089 161.149 8.61338 160.88L3.92362 157.859C2.43416 156.9 1.50009 155.536 1.1418 153.802C0.784486 152.067 1.10297 150.445 2.09141 148.975C3.85468 146.351 6.26171 144.36 9.10858 142.994C12.0254 141.597 15.1897 141 18.4114 141C21.1447 141 23.8585 141.446 26.3743 142.542C28.9046 143.645 31.0738 145.319 32.6593 147.588C34.3139 149.955 35.0965 152.697 35.0965 155.579C35.0965 158.018 34.5721 160.381 33.5177 162.58C33.1759 163.289 32.77 163.975 32.3176 164.635C34.4945 165.645 36.0101 167.852 36.0101 170.402V175.648C36.0101 179.146 33.1565 182 29.6581 182H8.63475C5.13636 182 2.28269 179.146 2.28269 175.648V171.475C2.28269 169.662 2.95557 168.102 4.27317 166.857L9.91933 161.524Z" fill="white" stroke="#2B2B2A" stroke-miterlimit="22.9256"/>
<path d="M29.6581 170.402V175.648H8.63474V171.475L19.3649 161.341C20.5174 160.268 21.2728 159.314 21.67 158.519C22.0671 157.765 22.2661 156.969 22.2661 156.214C22.2661 155.101 21.9088 154.227 21.1534 153.631C20.398 153.035 19.2853 152.756 17.8152 152.756C16.5831 152.756 15.5101 152.995 14.5168 153.432C13.5235 153.909 12.7283 154.625 12.0525 155.539L7.36374 152.519C8.43666 150.889 9.94651 149.617 11.8545 148.704C13.7614 147.789 15.9471 147.352 18.4114 147.352C20.4776 147.352 22.3059 147.671 23.8556 148.345C25.4053 149.021 26.5976 149.975 27.4724 151.207C28.3065 152.439 28.7444 153.909 28.7444 155.579C28.7444 157.089 28.4259 158.519 27.7899 159.831C27.154 161.143 25.9228 162.653 24.0945 164.361L17.6958 170.402H29.6581V170.402Z" fill="#2B2B2A"/>
<line x1="20" y1="320" x2="20" y2="253" stroke="#2B2B2A" stroke-width="2" stroke-dasharray="18 18"/>
<path fill-rule="evenodd" clip-rule="evenodd" d="M32.9975 253.858C33.0781 253.94 33.1567 254.025 33.2354 254.11C35.6657 256.764 36.8503 260.076 36.8503 263.667C36.8503 266.462 36.0968 269.116 34.6219 271.49C33.0451 274.027 30.7517 275.888 28.0689 277.157C25.2288 278.502 22.0955 279 18.9729 279C16.4503 279 13.953 278.665 11.5188 278.002C9.06611 277.333 6.71929 276.312 4.65016 274.823C2.08876 272.979 1.26925 269.603 2.69851 266.79L5.20166 261.861C6.08233 260.13 7.53392 258.992 9.42536 258.552C9.45741 258.545 9.48848 258.538 9.52052 258.531V255.996C9.52052 255.953 9.52052 255.909 9.52149 255.867C6.12894 255.744 3.40053 252.94 3.40053 249.519V244.352C3.40053 240.854 6.25419 238 9.75258 238H29.2263C32.7247 238 35.5783 240.854 35.5783 244.352V248.525C35.5783 250.129 35.0589 251.51 34.0005 252.716L32.9975 253.858V253.858Z" fill="white" stroke="#2B2B2A" stroke-miterlimit="22.9256"/>
<path d="M22.9471 255.678C25.3706 256.076 27.2387 256.99 28.5505 258.381C29.8623 259.812 30.4973 261.56 30.4973 263.667C30.4973 265.296 30.0604 266.766 29.2263 268.117C28.3913 269.508 27.0795 270.581 25.3706 271.416C23.6228 272.25 21.476 272.648 18.9729 272.648C17.0251 272.648 15.0783 272.409 13.2102 271.853C11.3023 271.336 9.67299 270.621 8.36218 269.667L10.8653 264.739C11.9383 265.534 13.1704 266.13 14.5618 266.568C15.9522 267.005 17.3436 267.243 18.8137 267.243C20.4429 267.243 21.7149 266.925 22.6286 266.289C23.5432 265.693 24.02 264.819 24.02 263.667C24.02 261.401 22.2713 260.249 18.8137 260.249H15.8726V255.996L21.5955 249.519H9.7526V244.352H29.2263V248.525L22.9471 255.678V255.678Z" fill="#2B2B2A"/>
</svg>
