<svg xmlns="http://www.w3.org/2000/svg" fill="none" viewBox="0 0 60 60"><g filter="url(#filter0_d_61_7334)" transform="rotate(-90 30 26)"><circle cx="30" cy="26" r="25" fill="#fff"/><circle cx="30" cy="26" r="24.5" stroke="#000"/></g><path fill="#000" d="M29.212 35.825c-.6 0-1.187-.033-1.762-.1a16.355 16.355 0 0 1-1.638-.275c-.517-.125-1-.267-1.45-.425a11.85 11.85 0 0 1-1.2-.5l.288-3.5c.45.233.904.446 1.362.638.458.191.913.358 1.363.5.458.133.908.237 1.35.312.45.075.879.112 1.287.112 1.083 0 1.858-.2 2.325-.6.467-.408.7-.929.7-1.562 0-.742-.3-1.3-.9-1.675-.6-.383-1.458-.575-2.575-.575H26.25V25.35h1.875c.758 0 1.375-.088 1.85-.263.475-.183.82-.437 1.037-.762.225-.325.338-.704.338-1.137 0-.667-.246-1.163-.738-1.488-.483-.333-1.125-.5-1.925-.5a6.18 6.18 0 0 0-1.212.125c-.409.083-.821.2-1.238.35-.417.142-.83.313-1.237.512-.409.2-.805.425-1.188.675l-.35-3.55a13.506 13.506 0 0 1 2.675-.962 15.485 15.485 0 0 1 1.575-.3 11.835 11.835 0 0 1 1.625-.113c1.267 0 2.346.184 3.238.55.891.359 1.57.871 2.037 1.538.475.658.713 1.438.713 2.338 0 .716-.142 1.337-.425 1.862a3.64 3.64 0 0 1-1.15 1.287 4.423 4.423 0 0 1-1.588.675v.3c.442.084.88.23 1.313.438.433.2.825.475 1.175.825.35.35.629.775.837 1.275.208.5.313 1.088.313 1.763 0 .966-.238 1.833-.713 2.6-.467.758-1.187 1.354-2.162 1.787-.967.433-2.205.65-3.713.65z"/><defs><filter id="filter0_d_61_7334" width="60" height="60" x="0" y="0" color-interpolation-filters="sRGB" filterUnits="userSpaceOnUse"><feFlood flood-opacity="0" result="BackgroundImageFix"/><feColorMatrix in="SourceAlpha" result="hardAlpha" values="0 0 0 0 0 0 0 0 0 0 0 0 0 0 0 0 0 0 127 0"/><feMorphology in="SourceAlpha" operator="dilate" radius="1" result="effect1_dropShadow_61_7334"/><feOffset dy="4"/><feGaussianBlur stdDeviation="2"/><feComposite in2="hardAlpha" operator="out"/><feColorMatrix values="0 0 0 0 0 0 0 0 0 0 0 0 0 0 0 0 0 0 0.25 0"/><feBlend in2="BackgroundImageFix" result="effect1_dropShadow_61_7334"/><feBlend in="SourceGraphic" in2="effect1_dropShadow_61_7334" result="shape"/></filter></defs></svg>