<svg width="37" height="43" viewBox="0 0 37 43" fill="none" xmlns="http://www.w3.org/2000/svg">
<path fill-rule="evenodd" clip-rule="evenodd" d="M9.91933 21.5243C9.46978 21.3631 9.03089 21.1485 8.61338 20.8796L3.92362 17.8589C2.43416 16.8996 1.50009 15.5363 1.1418 13.8022C0.784486 12.0671 1.10297 10.4446 2.09141 8.97454C3.85468 6.35099 6.26171 4.35954 9.10858 2.99437C12.0254 1.59715 15.1897 1 18.4114 1C21.1447 1 23.8585 1.44567 26.3743 2.54189C28.9046 3.64491 31.0738 5.31886 32.6593 7.58801C34.3139 9.95522 35.0965 12.6972 35.0965 15.5791C35.0965 18.0181 34.5721 20.3814 33.5177 22.5797C33.1759 23.2895 32.77 23.975 32.3176 24.6352C34.4945 25.6451 36.0101 27.8521 36.0101 30.4018V35.6479C36.0101 39.1463 33.1565 42 29.6581 42H8.63475C5.13636 42 2.28269 39.1463 2.28269 35.6479V31.4747C2.28269 29.6619 2.95557 28.1016 4.27317 26.8568L9.91933 21.5243Z" fill="white" stroke="#2B2B2A" stroke-miterlimit="22.9256"/>
<path d="M29.6581 30.4018V35.6479H8.63477V31.4747L19.3649 21.3408C20.5174 20.2678 21.2729 19.3143 21.67 18.5191C22.0671 17.7647 22.2662 16.9695 22.2662 16.214C22.2662 15.1013 21.9088 14.2275 21.1534 13.6313C20.398 13.0351 19.2853 12.7564 17.8152 12.7564C16.5831 12.7564 15.5102 12.9953 14.5169 13.4322C13.5236 13.909 12.7284 14.6246 12.0526 15.5392L7.36377 12.5186C8.43669 10.8893 9.94654 9.61731 11.8545 8.70363C13.7615 7.78898 15.9471 7.35205 18.4114 7.35205C20.4776 7.35205 22.306 7.67053 23.8556 8.34535C25.4053 9.02114 26.5976 9.97462 27.4725 11.2068C28.3065 12.4389 28.7444 13.909 28.7444 15.579C28.7444 17.0889 28.426 18.5191 27.79 19.8309C27.154 21.1427 25.9228 22.6525 24.0945 24.3614L17.6958 30.4018H29.6581V30.4018Z" fill="#2B2B2A"/>
</svg>
