<svg xmlns="http://www.w3.org/2000/svg" fill="none" viewBox="0 0 323 106"><path fill="#fff" fill-rule="evenodd" stroke="#898989" stroke-miterlimit="10" d="M226.061 15c6.848-8.534 17.364-14 29.154-14a37.217 37.217 0 0 1 14.713 3.01A37.212 37.212 0 0 1 284.64 1C305.268 1 322 17.732 322 38.358c0 12.12-5.776 22.895-14.723 29.721-.484 20.207-17.024 36.452-37.349 36.452-13.75 0-25.769-7.434-32.255-18.501-2.653 2.875-6.35 4.499-10.488 4.499h-18.247c-2.841 0-5.438-.742-7.67-2.164a14.26 14.26 0 0 1-7.569 2.164h-15.507a14.32 14.32 0 0 1-9.826-3.899 14.32 14.32 0 0 1-9.826 3.899h-15.773a14.318 14.318 0 0 1-9.817-3.89c-2.734 2.586-6.03 3.89-9.834 3.89h-14.371c-3.956 0-7.547-1.61-10.15-4.211H91.488a14.328 14.328 0 0 1-10.146 4.21H66.97c-2.93 0-5.657-.882-7.934-2.397-5.569 2.42-11.538 3.467-17.6 3.467-7.003 0-13.799-1.49-20.022-4.74C15.183 83.6 10.092 78.89 6.45 72.868 2.749 66.749 1 59.908 1 52.765c0-7.144 1.749-13.984 5.45-20.104 3.642-6.022 8.733-10.732 14.965-13.988 6.223-3.252 13.019-4.743 20.022-4.743 6.062 0 12.032 1.05 17.6 3.468A14.29 14.29 0 0 1 66.971 15h12.966c5.15 0 9.576 2.482 12.262 6.876l2.814 4.604 2.654-4.459c2.663-4.476 7.138-7.02 12.348-7.02h12.966c.353 0 .703.011 1.048.037.36-.026.725-.038 1.092-.038h16.643c3.695 0 7.021 1.28 9.592 3.62 2.571-2.34 5.897-3.62 9.59-3.62h15.241c.345 0 .685.012 1.024.034.324-.022.65-.034.981-.034h15.507c2.806 0 5.429.812 7.647 2.212 2.257-1.464 4.856-2.212 7.725-2.212h16.99z" clip-rule="evenodd"/><path fill="#56B6E6" d="M278.203 38.358c0 12.697-10.292 22.99-22.988 22.99-12.697 0-22.99-10.293-22.99-22.99 0-12.696 10.293-22.987 22.99-22.987 12.696 0 22.988 10.29 22.988 22.987z"/><path fill="#E8417C" d="M307.629 38.358c0 12.697-10.293 22.99-22.99 22.99-12.696 0-22.987-10.293-22.987-22.99 0-12.696 10.291-22.987 22.987-22.987 12.697 0 22.99 10.29 22.99 22.987z"/><path fill="#FFD538" d="M292.916 67.17c0 12.697-10.293 22.99-22.988 22.99-12.696 0-22.99-10.293-22.99-22.99 0-12.696 10.294-22.987 22.99-22.987 12.695 0 22.988 10.29 22.988 22.987z"/><path fill="#E73B3E" d="M262.734 45.337c2.955 9.284 11.643 16.01 21.906 16.01 2.514 0 4.929-.408 7.194-1.154-2.954-9.285-11.645-16.01-21.906-16.01-2.514 0-4.932.409-7.194 1.154z"/><path fill="#71A846" d="M248.02 60.194a22.963 22.963 0 0 0 7.195 1.154c10.263 0 18.95-6.727 21.905-16.01a22.944 22.944 0 0 0-7.192-1.155c-10.263 0-18.952 6.725-21.908 16.01z"/><path fill="#5A4996" d="M261.652 38.358c0 7.1 3.219 13.444 8.276 17.661 5.055-4.217 8.275-10.56 8.275-17.66 0-7.098-3.22-13.445-8.275-17.661-5.057 4.216-8.276 10.563-8.276 17.66z"/><path fill="#252523" d="M269.928 44.183c-2.512 0-4.928.405-7.19 1.15a23.017 23.017 0 0 0 7.186 10.684l.107-.089c.248-.207.492-.423.729-.64l.125-.115c.272-.254.54-.516.8-.782l.165-.175c.202-.214.401-.43.597-.65.07-.08.141-.158.209-.239.222-.257.437-.52.649-.787l.068-.087c.214-.276.421-.56.625-.846a16.8 16.8 0 0 0 .213-.312c.141-.206.28-.417.415-.629.067-.107.137-.213.204-.32.179-.294.353-.59.518-.89.062-.112.119-.226.179-.34a23.73 23.73 0 0 0 .528-1.057c.097-.207.189-.417.282-.63.056-.132.117-.265.171-.398.123-.302.238-.608.349-.916.056-.155.109-.314.161-.474.034-.1.064-.203.097-.306a22.974 22.974 0 0 0-7.187-1.152z"/><path fill="#fff" d="M251.139 38.965c.198.507.464.96.824 1.356.345.403.762.727 1.251.97.486.245 1.018.371 1.608.371.337 0 .673-.046 1.018-.127.348-.08.673-.207.985-.372a3.36 3.36 0 0 0 .824-.6c.244-.232.427-.498.554-.81l-1.31-.752c-.09.22-.219.417-.366.568a2.35 2.35 0 0 1-.5.393 2.37 2.37 0 0 1-.58.22 2.56 2.56 0 0 1-.578.068c-.357 0-.683-.08-.972-.232a2.3 2.3 0 0 1-.765-.614 2.644 2.644 0 0 1-.498-.889 3.229 3.229 0 0 1-.024-2.028c.105-.327.256-.615.453-.88.198-.253.44-.464.74-.623.292-.166.638-.244 1.043-.244.184 0 .371.022.569.056.195.045.38.115.554.21.173.093.348.22.499.37.151.162.288.36.393.589l1.227-.844c-.266-.532-.681-.961-1.227-1.298-.558-.334-1.217-.497-1.97-.497-.637 0-1.213.114-1.713.36a4.198 4.198 0 0 0-1.273.935 3.879 3.879 0 0 0-.788 1.31c-.183.5-.28.995-.28 1.495 0 .521.105 1.04.302 1.539zm38.844 2.629v-8.222h-1.701l-2.454 4.676-2.434-4.676h-1.712v8.222h1.598v-5.442l2.117 4.054h.87l2.12-4.054v5.442h1.596zM266.159 63.409l2.977 5.329v2.895h1.586V68.76l2.986-5.351h-1.723l-2.061 3.963-2.029-3.963h-1.736z"/><path fill="#2B2B2A" d="M41.437 77.228c-4.946 0-9.4-1.036-13.368-3.109-3.964-2.071-7.073-4.968-9.324-8.69-2.25-3.718-3.374-7.941-3.374-12.664 0-4.724 1.124-8.945 3.374-12.666s5.36-6.618 9.324-8.69c3.967-2.072 8.422-3.108 13.368-3.108 4.545 0 8.6.802 12.166 2.408 3.564 1.603 6.506 3.92 8.823 6.95l-9.959 8.889c-2.897-3.653-6.306-5.48-10.226-5.48-3.298 0-5.95 1.058-7.954 3.175-2.007 2.116-3.008 4.956-3.008 8.522 0 3.564 1.001 6.405 3.008 8.522 2.004 2.116 4.656 3.174 7.954 3.174 3.92 0 7.33-1.826 10.226-5.48l9.959 8.888c-2.317 3.03-5.259 5.35-8.823 6.953-3.565 1.604-7.621 2.406-12.166 2.406zm67.309-1.07l-.133-21.322-10.16 17.111H91.5L81.342 55.572v20.586H66.97V29.37h12.966l15.24 24.932 14.838-24.932h12.966l.135 46.787h-14.37zm49.794-16.976v16.976h-15.772V58.98l-17.647-29.61h16.643l9.558 16.176 9.624-16.176h15.241L158.54 59.182zm38.701 1.469l-3.542 3.944v11.563h-15.507V29.37h15.507v16.978l15.372-16.978h17.177l-18.714 20.586 19.651 26.2h-18.247l-11.697-15.506z"/></svg>