<svg xmlns="http://www.w3.org/2000/svg" fill="none" viewBox="0 0 262 86"><path fill="#fff" fill-rule="evenodd" stroke="#898989" stroke-miterlimit="10" d="M183.292 12.34C188.839 5.427 197.357 1 206.906 1c4.232 0 8.259.868 11.918 2.438A30.137 30.137 0 0 1 230.739 1C247.448 1 261 14.552 261 31.26c0 9.816-4.678 18.543-11.925 24.072-.392 16.367-13.789 29.525-30.251 29.525-11.138 0-20.873-6.022-26.126-14.986-2.149 2.33-5.144 3.644-8.495 3.644h-14.78c-2.301 0-4.404-.6-6.212-1.752a11.55 11.55 0 0 1-6.131 1.752h-12.56a11.6 11.6 0 0 1-7.959-3.157 11.597 11.597 0 0 1-7.958 3.157h-12.776a11.599 11.599 0 0 1-7.952-3.15c-2.214 2.095-4.884 3.15-7.965 3.15H88.27a11.6 11.6 0 0 1-8.22-3.41h-5.758a11.606 11.606 0 0 1-8.218 3.41h-11.64a11.56 11.56 0 0 1-6.426-1.942c-4.51 1.96-9.345 2.809-14.256 2.809-5.672 0-11.176-1.208-16.217-3.84-5.047-2.639-9.17-6.454-12.12-11.331C2.415 54.255 1 48.713 1 42.928c0-5.786 1.416-11.326 4.414-16.284 2.95-4.877 7.074-8.692 12.121-11.33 5.041-2.633 10.545-3.84 16.217-3.84 4.91 0 9.746.85 14.256 2.807a11.574 11.574 0 0 1 6.426-1.941h10.503c4.17 0 7.756 2.01 9.931 5.57l2.28 3.728 2.149-3.611c2.157-3.626 5.782-5.687 10.002-5.687H99.8c.286 0 .569.01.849.03.292-.02.587-.03.884-.03h13.481c2.992 0 5.687 1.036 7.769 2.932 2.082-1.896 4.776-2.932 7.767-2.932h12.345c.279 0 .555.01.829.027.263-.018.527-.027.795-.027h12.56c2.273 0 4.398.657 6.194 1.791 1.828-1.186 3.933-1.791 6.257-1.791h13.761z" clip-rule="evenodd"/><path fill="#56B6E6" d="M225.525 31.26c0 10.283-8.335 18.62-18.619 18.62-10.284 0-18.621-8.337-18.621-18.62 0-10.285 8.337-18.62 18.621-18.62 10.284 0 18.619 8.335 18.619 18.62z"/><path fill="#E8417C" d="M249.36 31.26c0 10.283-8.337 18.62-18.621 18.62-10.284 0-18.619-8.337-18.619-18.62 0-10.285 8.335-18.62 18.619-18.62 10.284 0 18.621 8.335 18.621 18.62z"/><path fill="#FFD538" d="M237.443 54.596c0 10.284-8.337 18.62-18.619 18.62-10.284 0-18.621-8.336-18.621-18.62s8.337-18.62 18.621-18.62c10.282 0 18.619 8.336 18.619 18.62z"/><path fill="#E73B3E" d="M212.996 36.912c2.394 7.52 9.431 12.968 17.743 12.968 2.037 0 3.993-.331 5.827-.935-2.392-7.521-9.432-12.968-17.743-12.968-2.036 0-3.994.331-5.827.935z"/><path fill="#71A846" d="M201.079 48.945c1.834.604 3.791.935 5.827.935 8.313 0 15.349-5.449 17.743-12.968a18.583 18.583 0 0 0-5.825-.935c-8.313 0-15.351 5.447-17.745 12.968z"/><path fill="#5A4996" d="M212.12 31.26c0 5.75 2.608 10.888 6.704 14.304 4.094-3.416 6.702-8.554 6.702-14.305 0-5.749-2.608-10.89-6.702-14.305-4.096 3.416-6.704 8.556-6.704 14.305z"/><path fill="#252523" d="M218.824 35.977a18.57 18.57 0 0 0-5.824.931 18.636 18.636 0 0 0 5.82 8.654l.087-.072c.2-.168.398-.342.59-.519l.102-.093c.22-.205.437-.417.647-.633l.134-.142c.163-.173.325-.347.483-.527.057-.063.115-.127.17-.192.18-.21.354-.421.525-.638l.056-.07c.173-.224.341-.454.506-.686.059-.083.116-.168.173-.253.114-.166.227-.338.336-.51l.165-.258c.145-.239.285-.479.419-.722.051-.09.096-.182.145-.274a21.352 21.352 0 0 0 .428-.857c.078-.168.153-.337.228-.51.046-.107.095-.214.139-.322a17.492 17.492 0 0 0 .413-1.126c.028-.081.052-.165.078-.248a18.6 18.6 0 0 0-5.82-.933z"/><path fill="#fff" d="M203.605 31.75c.16.411.375.779.668 1.099.279.326.616.589 1.013.786.393.198.824.3 1.302.3.273 0 .545-.037.824-.102.283-.066.545-.169.798-.302.245-.13.472-.29.668-.487.197-.187.346-.403.448-.656l-1.06-.608a1.484 1.484 0 0 1-.297.46 1.916 1.916 0 0 1-.405.318c-.152.083-.31.139-.47.178-.16.037-.32.055-.468.055-.289 0-.554-.065-.787-.187a1.864 1.864 0 0 1-.62-.498 2.143 2.143 0 0 1-.403-.72 2.62 2.62 0 0 1-.02-1.643c.085-.264.208-.498.368-.713.159-.204.355-.375.598-.504.237-.134.518-.198.846-.198.148 0 .3.018.46.046a1.747 1.747 0 0 1 .853.47c.123.13.234.29.319.476l.993-.683c-.215-.431-.551-.779-.993-1.051-.452-.271-.986-.403-1.596-.403-.516 0-.983.093-1.387.292a3.409 3.409 0 0 0-1.032.757 3.166 3.166 0 0 0-.638 1.06 3.504 3.504 0 0 0-.227 1.211c0 .423.085.843.245 1.247zm31.462 2.13v-6.66h-1.377l-1.988 3.788-1.971-3.788h-1.387v6.66h1.294v-4.408l1.715 3.283h.705l1.716-3.283v4.408h1.293zM215.77 51.55l2.412 4.316v2.344h1.284v-2.327l2.419-4.334h-1.395l-1.67 3.21-1.643-3.21h-1.407z"/><path fill="#2B2B2A" d="M33.752 62.742c-4.006 0-7.614-.839-10.827-2.518-3.211-1.677-5.73-4.024-7.552-7.038-1.823-3.012-2.733-6.433-2.733-10.258 0-3.826.91-7.245 2.733-10.259 1.823-3.014 4.34-5.36 7.552-7.038 3.213-1.68 6.821-2.518 10.827-2.518 3.682 0 6.967.65 9.855 1.95 2.887 1.299 5.27 3.176 7.146 5.63l-8.066 7.2c-2.347-2.959-5.108-4.44-8.283-4.44-2.672 0-4.82.858-6.443 2.573-1.625 1.713-2.436 4.014-2.436 6.902 0 2.887.81 5.188 2.436 6.903 1.624 1.713 3.771 2.57 6.443 2.57 3.175 0 5.936-1.478 8.283-4.439l8.066 7.2c-1.877 2.454-4.26 4.333-7.146 5.632-2.888 1.299-6.173 1.948-9.855 1.948zm54.518-.866l-.107-17.27-8.23 13.859h-5.631l-8.228-13.264v16.675h-11.64V23.98h10.503L77.28 44.172 89.298 23.98h10.503l.11 37.897H88.27zm40.333-13.75v13.75h-12.776V47.963L101.534 23.98h13.48l7.742 13.101 7.795-13.102h12.345l-14.293 24.147zm31.346 1.19l-2.869 3.194v9.366h-12.56V23.98h12.56v13.75l12.451-13.75h13.913l-15.158 16.674 15.917 21.221h-14.78l-9.474-12.56z"/></svg>